<svg width="201" height="94" viewBox="0 0 201 94" fill="none" xmlns="http://www.w3.org/2000/svg">
<path d="M195.698 92.6533C195.702 92.7356 195.709 92.8202 195.714 92.9025H2.875C2.88187 92.8179 2.88874 92.7311 2.89789 92.6465C3.27792 92.6556 3.66023 92.6716 4.04025 92.6716C67.5453 92.6716 131.05 92.6716 194.555 92.6716C194.935 92.6716 195.318 92.6579 195.698 92.6511V92.6533Z" fill="#A7B9AB"/>
<path d="M195.7 92.6447C195.32 92.6516 194.938 92.6653 194.558 92.6653C131.053 92.6653 67.5478 92.6653 4.04275 92.6653C3.66273 92.6653 3.28041 92.6493 2.90039 92.6401C3.3697 91.2368 3.19113 89.7511 3.26668 88.3272C3.4544 84.773 3.98552 81.2486 4.07022 77.6807C4.14348 74.5905 4.53953 71.5027 4.75701 68.4102C4.8234 67.4502 4.85087 66.4743 4.97678 65.512C5.57658 65.3178 5.47814 64.9795 5.1645 64.5978C5.17824 63.8367 5.19198 63.0779 5.20571 62.3167C5.80551 62.1202 5.70936 61.7842 5.39114 61.4025C5.37054 60.4608 5.40488 59.526 5.61321 58.6003C5.74141 58.0335 5.60405 57.6495 4.87147 57.7455C3.75888 57.8918 3.85732 57.3066 4.27168 56.6347C6.29084 53.3411 8.10854 49.9355 9.96974 46.5528C11.5677 43.6477 13.1496 40.7313 14.8139 37.8605C15.7044 36.3223 16.7094 34.8161 17.529 33.2687C18.5111 31.4174 19.5275 29.5706 20.5074 27.7124C21.3407 26.1307 22.3274 24.6176 23.1721 23.0565C24.4015 20.7823 25.6354 18.5059 26.8945 16.2454C28.2841 13.7495 29.6714 11.2513 31.029 8.7371C31.2739 8.28454 31.4456 8.21369 31.9744 8.35997C35.1886 9.25136 38.3936 10.209 41.6559 10.881C45.8819 11.7496 50.0278 12.9221 54.2241 13.8958C54.5767 13.978 54.9842 14.09 55.2978 13.7838C56.2204 12.8832 57.5093 12.6044 58.5211 11.8707C59.2354 11.3541 59.9176 11.4113 60.7257 11.6421C63.3035 12.3758 65.8926 13.0821 68.5047 13.6832C69.6677 13.9506 69.654 14.5723 69.2556 15.3608C69.1114 15.6488 69.2602 15.8385 69.2167 16.0557C68.926 17.5002 69.7204 17.9276 70.968 18.0693C71.6869 18.1516 72.392 18.3847 73.0856 18.6064C73.8823 18.8624 74.5965 18.8396 75.368 18.4304C80.0268 15.9528 84.7129 13.5209 89.4083 11.1187C93.0551 9.25365 96.6951 7.36344 100.369 5.54408C103.609 3.93957 106.793 2.22307 109.987 0.529418C110.561 0.225429 110.827 0.31914 111.15 0.890547C112.862 3.951 114.634 6.97717 116.365 10.0285C119.643 15.8088 122.898 21.6052 126.181 27.3832C127.134 29.0586 128.168 30.686 129.123 32.3613C129.313 32.695 129.498 32.8116 129.867 32.9053C133.216 33.751 136.556 34.6378 139.899 35.5132C140.585 35.6938 141.178 35.2778 141.785 35.1246C143.507 34.6927 145.237 34.3087 146.973 33.9567C148.003 33.7464 148.083 33.015 148.138 32.215C148.296 29.9523 148.312 30.0163 150.626 29.438C152.765 28.9032 154.875 28.2449 156.975 27.5661C159.152 26.8621 161.205 26.4804 163.025 28.4255C164.071 29.5454 165.328 29.7854 166.894 29.2643C170.749 27.9752 174.797 27.4038 178.73 26.3707C180.927 25.7947 183.166 25.2827 185.389 24.7548C186.014 24.6062 186.147 24.8805 186.284 25.221C186.857 26.6221 187.379 28.0438 187.93 29.454C188.457 30.798 189.018 32.1282 189.592 33.4493C190.133 34.6927 190.369 36.1052 190.897 37.408C192.179 40.5713 193.471 43.7369 194.608 46.955C195.689 50.0109 196.994 52.9754 198.063 56.0358C198.489 57.2541 198.848 58.5546 199.613 59.6517C199.67 59.7043 199.725 59.7591 199.782 59.8117C199.846 60.3191 199.798 60.8471 200.169 61.3705C199.411 61.4071 198.608 61.2128 198.184 61.5282C197.706 61.8825 198.081 62.7304 198.008 63.359C197.706 65.9943 197.518 68.6388 197.282 71.281C197.058 73.8043 196.998 76.3413 196.68 78.8624C196.518 80.1538 196.474 81.4817 196.421 82.7937C196.318 85.2987 195.986 87.7763 195.735 90.2654C195.655 91.0539 195.709 91.8584 195.7 92.6538V92.6447ZM11.8035 50.6875C11.5928 50.772 11.57 50.9503 11.5768 51.1423C11.5448 51.1515 11.5081 51.156 11.4852 51.1743C11.4715 51.1857 11.4738 51.22 11.4692 51.2452C11.5013 51.2063 11.5333 51.1675 11.5631 51.1286C11.7714 51.0417 11.808 50.8726 11.7897 50.6738C11.8767 50.6555 12.0072 50.6646 11.879 50.5206C11.8538 50.5755 11.8286 50.6303 11.8012 50.6875H11.8035ZM9.97431 53.8828C10.0293 53.8005 10.0865 53.7182 10.1391 53.6314C10.1391 53.6291 10.0865 53.5925 10.059 53.5719C10.027 53.6702 9.99263 53.7685 9.96058 53.8668C9.94455 53.9033 9.93082 53.9376 9.91479 53.9742C9.9354 53.9445 9.956 53.9125 9.9766 53.8828H9.97431ZM182.219 44.5254C182.173 44.2351 182.127 43.9426 181.761 44.2991C181.321 44.3334 180.863 44.1826 180.49 44.3746C180.715 45.3665 180.65 46.2991 180.41 47.2522C180.321 47.611 180.22 48.1459 180.733 48.3356C181.113 48.475 181.566 48.4978 181.944 48.315C182.477 48.0567 181.983 47.6842 181.992 47.3619C181.999 47.099 182.017 46.8362 182.029 46.5756C182.232 46.5276 182.434 46.4796 182.638 46.4316C182.649 46.9985 182.722 47.5722 182.66 48.1299C182.569 48.955 183.794 48.4498 183.723 49.2178C182.871 49.3214 182.445 49.8311 182.445 50.7469C182.445 51.316 182.459 51.8829 182.443 52.4497C182.425 53.0714 182.768 53.1811 183.311 53.1925C183.803 53.2039 183.97 53.1514 184.078 52.5708C184.476 50.4338 184.121 48.2898 184.256 46.1528C184.35 44.6557 184.219 44.61 182.638 44.8568C182.496 44.8203 182.354 44.7814 182.214 44.7448C182.232 44.6717 182.235 44.5963 182.214 44.5231L182.219 44.5254ZM29.6439 47.0305C29.8271 45.1494 30.0102 43.2683 30.2002 41.3301C29.5524 41.3301 28.9045 41.3667 28.2635 41.321C27.5469 41.2707 27.4531 41.6181 27.3157 42.2467C27.0982 43.234 27.2081 44.2397 26.9426 45.2271C26.7365 45.9859 26.9426 46.843 26.7549 47.6407C27.6545 47.7939 28.5428 47.7779 29.4173 47.4853C29.708 47.4419 29.9919 47.3939 29.6462 47.0305H29.6439ZM30.5963 37.8994C30.6558 37.8125 30.7153 37.7257 30.7726 37.6388C30.8527 36.6697 30.9694 35.7029 30.9946 34.7338C31.0038 34.4138 31.3243 33.767 30.5894 33.815C29.7836 33.8676 28.5771 33.6573 28.3413 34.5098C27.8835 36.1692 27.7988 37.9337 27.595 39.6593C27.563 39.929 27.389 40.3153 27.9636 40.4296C29.5867 40.7519 30.5551 40.0045 30.5574 38.3497C30.5574 38.1988 30.5803 38.048 30.594 37.8971L30.5963 37.8994ZM108.077 41.5633C107.439 41.4535 107.162 41.5953 107.164 42.3655C107.171 44.1277 107.363 45.8991 106.972 47.6522C106.77 48.5504 107.082 49.1058 108.112 49.2315C109.06 49.3481 109.998 49.2955 110.941 49.2978C111.422 49.2978 111.562 48.8361 111.534 48.5116C111.363 46.6191 111.862 44.7631 111.791 42.8752C111.768 42.2627 111.443 42.0889 110.999 42.0227C110.115 41.8947 109.224 41.8307 108.336 41.7392L108.082 41.561L108.077 41.5633ZM146.533 83.1296C145.62 83.1205 144.704 83.0588 143.795 83.1159C143.005 83.1662 142.822 82.8371 142.863 82.1263C142.9 81.4611 142.783 80.8052 143.804 80.8509C144.866 80.8989 145.933 80.8577 147 80.86C148.101 80.8623 147.527 80.0075 147.687 79.5298C147.831 79.1001 147.694 78.9287 147.222 78.9332C145.244 78.9492 143.266 78.9424 141.286 78.9401C140.892 78.9401 140.643 79.0498 140.606 79.5023C140.379 82.3548 140.132 85.2027 139.901 88.0552C139.848 88.6997 139.864 89.3214 140.801 89.246C141.536 89.1865 142.335 89.5363 142.492 88.206C142.612 87.2118 142.161 85.8587 142.875 85.2964C143.623 84.7067 144.924 85.1341 145.984 85.1296C146.577 85.1273 146.828 84.9239 146.78 84.3387C146.753 83.9982 146.746 83.6576 146.728 83.3171C146.732 83.1799 146.67 83.1114 146.526 83.1319L146.533 83.1296ZM133.727 78.9355C131.65 78.8304 130.155 79.7218 129.148 81.5251C128.553 82.5925 128.422 83.7262 128.473 84.9101C128.622 88.3912 131.701 89.8654 134.528 89.1294C138.523 88.0895 139.072 84.6724 138.289 81.4474C137.811 79.4772 136.103 78.8807 134.182 78.9332C134.159 78.7869 134.141 78.6132 133.953 78.6132C133.766 78.6132 133.747 78.7869 133.724 78.9332L133.727 78.9355ZM170.101 84.5216C170.291 84.3936 170.493 84.2816 170.667 84.1376C171.702 83.2919 171.903 82.1514 171.66 80.94C171.447 79.8726 170.694 79.2669 169.614 79.0864C167.725 78.771 165.82 78.9927 163.925 78.9538C163.414 78.9424 163.469 79.3561 163.467 79.6944C163.456 81.3171 163.199 82.9171 163.048 84.5285C162.929 85.8015 163.032 87.0929 162.789 88.366C162.673 88.9831 163.039 89.374 163.643 89.2163C164.209 89.07 165.145 89.8448 165.319 88.5511C165.415 87.8403 165.559 87.1455 165.541 86.4209C165.532 86.0781 165.31 85.5547 165.781 85.4267C166.237 85.3033 166.816 85.2804 167.231 85.4633C167.686 85.6621 167.686 86.2884 167.812 86.7546C168.442 89.0791 168.849 89.4105 170.724 89.2505C171.294 89.2026 171.454 89.0334 171.248 88.4826C170.839 87.3855 170.468 86.2724 170.078 85.1661C170.083 84.9513 170.09 84.7342 170.095 84.5193L170.101 84.5216ZM137.154 62.8859C137.22 62.9979 137.289 63.1121 137.355 63.2241C137.209 65.4 137.193 67.5988 136.865 69.7473C136.659 71.0958 136.767 72.4443 136.524 73.7974C136.165 75.7996 136.309 75.8271 138.388 75.8248C138.921 75.8248 139.455 75.8134 139.986 75.8248C140.412 75.8339 140.579 75.6556 140.606 75.2214C140.819 71.9118 141.085 68.6045 141.265 65.2926C141.4 62.8173 141.352 62.815 143.779 62.815H144.578C145.845 62.815 146.51 62.1903 146.574 60.9408C146.636 60.8585 146.696 60.7739 146.757 60.6917C146.927 59.8665 146.65 59.574 145.755 59.5877C142.225 59.638 138.692 59.6083 135.162 59.6083C132.687 59.6083 132.719 59.6106 132.491 62.031C132.431 62.6642 132.573 62.8264 133.175 62.8241C134.501 62.8173 135.828 62.863 137.156 62.8859H137.154ZM125.259 52.2874C125.259 52.3628 125.261 52.436 125.263 52.5114C125.808 53.5559 127.063 53.9125 128.452 53.4165C129.34 52.9617 128.699 52.7537 128.303 52.5091C128.123 52.0954 127.955 51.6771 127.759 51.2703C126.625 48.9367 125.488 46.6076 124.35 44.2763C124.286 44.2077 124.219 44.1392 124.155 44.0706C123.99 43.6112 123.883 43.1198 123.649 42.6969C122.159 39.9953 120.84 37.2114 119.499 34.4344C116.001 27.189 112.404 19.9869 108.84 12.7712C108.684 12.4558 108.561 11.8775 108.155 12.033C107.688 12.2112 107.29 12.6798 107.395 13.3015C107.439 13.5575 107.562 13.8043 107.672 14.0443C109.758 18.6339 111.837 23.2257 113.936 27.8084C115.879 32.0482 117.844 36.2766 119.799 40.5119C120.792 42.6626 121.687 44.85 122.811 46.955C123.72 48.6578 124.405 50.5206 125.261 52.2828L125.259 52.2874ZM32.6223 76.0099C32.5445 76.0716 32.4666 76.1333 32.3911 76.1973C31.1274 76.5242 29.866 76.8533 28.6023 77.1802C32.2377 77.4682 35.8044 76.9996 39.3872 77.1459C41.8184 77.2442 44.2039 77.667 46.5046 78.4121C51.4792 80.0212 55.323 83.1525 58.2372 87.4495C58.5074 87.8472 58.7844 88.1123 59.3132 88.1077C61.2774 88.0872 63.2439 88.0986 65.2196 88.0986C65.08 87.3283 64.764 86.7066 64.3863 86.0987C62.7907 83.5411 60.6341 81.4977 58.2144 79.7812C55.7236 78.0144 53.052 76.5173 50.0324 75.7768C48.0041 75.2808 45.946 75.0385 43.8696 74.794C41.7314 74.5425 39.6825 74.8397 37.597 75.0111C35.8983 75.1505 34.2935 75.7288 32.6269 76.0122L32.6223 76.0099ZM172.622 72.6363C172.684 72.6935 172.743 72.7506 172.805 72.8078C173.135 75.7791 173.187 75.8271 176.125 75.8248C176.353 75.8248 176.582 75.8111 176.809 75.8248C177.567 75.8773 177.793 75.6899 177.551 74.8465C176.23 70.273 174.964 65.6835 173.721 61.0894C173.432 60.0197 173.016 59.3728 171.736 59.5808C170.921 59.7134 170.06 59.6586 169.229 59.59C168.43 59.5237 168.071 59.9214 167.808 60.5842C167.205 62.0973 166.59 63.6081 165.946 65.1052C164.419 68.6571 162.872 72.1975 161.299 75.8225C161.784 75.8225 162.176 75.7631 162.54 75.8316C164.689 76.243 166.063 75.5071 166.493 73.2763C166.594 72.7598 166.926 72.5632 167.482 72.5792C169.195 72.6272 170.907 72.6203 172.62 72.634L172.622 72.6363ZM52.3217 74.0877C52.3766 74.4168 52.6079 74.5311 52.8917 74.6842C54.991 75.8316 57.056 77.0362 59.1553 78.1858C61.575 79.5115 64.2673 78.3413 65.1257 75.6556C65.579 74.234 65.4165 72.7598 65.5973 71.3221C65.8904 68.9999 66.0598 66.68 66.0025 64.3464C65.9819 63.5213 65.7004 62.7601 65.0616 62.159C63.9101 61.0734 62.4839 60.9111 61.0096 60.9111C55.5977 60.9156 50.1858 60.9865 44.7739 60.9111C42.4823 60.8791 40.3899 61.2608 38.6706 62.8196C37.7366 63.6653 36.434 64.1292 35.7449 65.4823C36.2989 65.4823 36.7064 65.4823 37.1116 65.4823C44.1627 65.4915 51.2137 65.4892 58.2624 65.5143C59.9542 65.5212 60.6845 66.3943 60.2656 68.0239C59.9153 69.3885 60.103 70.7735 59.881 72.1472C59.6658 73.4889 59.4071 73.93 58.0175 73.9643C56.1174 74.0123 54.2172 74.0626 52.3171 74.1106C52.2965 74.0854 52.2805 74.0489 52.2576 74.042C52.2347 74.0374 52.2027 74.0648 52.1752 74.0763C52.2256 74.0786 52.2736 74.0808 52.324 74.0831L52.3217 74.0877ZM20.0129 73.7174C20.0953 73.6626 20.1777 73.6054 20.2578 73.5506C22.0755 72.2409 23.8932 70.9313 25.7109 69.6216C25.8002 69.5622 25.8895 69.5005 25.9788 69.441C27.492 68.3599 29.0029 67.2811 30.5162 66.2L30.784 66.0103C32.6017 64.7052 34.4194 63.3978 36.2371 62.0927C36.3264 62.0287 36.4157 61.967 36.505 61.903C36.592 61.8345 36.7293 61.7819 36.7591 61.6928C36.8644 61.3728 37.558 61.5145 37.3428 61.0322C37.2055 60.7236 36.7934 60.8928 36.5095 60.8882C35.1016 60.8631 33.6891 60.9134 32.2835 60.8471C30.3147 60.7556 28.5771 61.2082 27.025 62.5042C25.8071 63.519 24.4472 64.3647 23.1515 65.2881C19.3467 67.9965 15.5648 70.737 11.721 73.3883C10.9496 73.9209 11.1625 74.1814 11.6684 74.6225C12.9161 75.7082 14.1523 76.8076 15.4068 77.8864C19.2437 81.1914 23.0851 84.4964 26.9357 87.7877C27.2951 88.094 27.7301 88.5123 28.1399 88.5237C30.4979 88.5946 32.8581 88.558 35.2184 88.558C35.3695 88.558 35.5847 88.5489 35.5572 88.3706C35.4908 87.9295 35.0993 87.6963 34.7971 87.4358C33.2679 86.1101 31.6997 84.8279 30.1796 83.4931C27.7759 81.3834 25.3996 79.2441 23.0119 77.1162C22.9271 77.0567 22.8447 76.995 22.76 76.9356C21.842 76.1242 20.924 75.3128 20.0037 74.506C19.6947 74.234 19.4199 73.9734 20.0197 73.7243L20.0129 73.7174ZM183.821 36.0846C183.764 36.0092 183.709 35.936 183.652 35.8606C183.409 35.1452 183.169 34.4275 182.926 33.7121C182.873 33.6367 182.821 33.5636 182.768 33.4881C182.736 33.5796 182.702 33.671 182.67 33.7624C182.548 34.4755 181.878 34.9807 181.841 35.8012C182.31 35.6161 182.365 35.1818 182.631 34.9304C182.709 34.9304 182.784 34.9349 182.862 34.9372C185.112 41.6547 187.358 48.3744 189.613 55.0919C190.442 57.5626 190.453 57.5581 193.198 57.5146C193.347 57.7523 193.5 57.7683 193.661 57.5261C194.047 57.4666 194.512 57.7706 194.81 57.2815C194.803 56.9821 194.833 56.6621 194.407 56.6118C194.082 55.693 193.759 54.7742 193.434 53.8553C193.377 53.7891 193.317 53.7228 193.26 53.6565C193.134 52.7422 192.324 52.0611 192.39 51.0829C192.587 50.7606 192.351 50.724 192.124 50.6783C191.799 49.7595 191.474 48.8407 191.147 47.9196C191.092 47.8556 191.037 47.7893 190.982 47.7253C190.886 47.4122 190.787 47.1013 190.691 46.7882C190.641 46.4499 190.847 45.9951 190.284 45.8877C190.261 45.7368 190.266 45.5768 190.213 45.4374C188.178 40.0867 186.133 34.7384 184.105 29.3832C183.897 28.8323 183.601 28.7706 183.052 28.9077C180.957 29.4312 178.842 29.8768 176.74 30.3774C171.097 31.7213 165.461 33.0859 159.816 34.4252C159.188 34.5738 158.852 34.8961 158.653 35.5063C158.051 37.3417 157.414 39.1656 156.743 40.9758C156.592 41.3827 156.588 41.9381 156.057 42.1781C156.002 42.0455 155.942 41.9747 155.947 41.9084C156.226 38.6445 156.508 35.3806 156.803 32.119C156.86 31.4836 156.78 31.1865 156.013 31.4311C154.786 31.8242 153.527 32.119 152.277 32.4413C151.924 32.5327 151.583 32.631 151.599 33.0699C151.634 33.9087 151.212 34.6972 151.347 35.5452C151.448 36.1783 151.222 36.4252 150.542 36.6034C147.028 37.5154 143.459 38.1988 139.954 39.1588C138.635 39.5199 137.197 39.9587 135.689 39.6548C136.337 39.1953 137.204 39.2776 137.815 38.5051C134.833 37.7737 131.943 37.0651 128.933 36.3269C129.672 38.3085 130.359 40.1485 131.046 41.9861C130.943 42.0821 130.84 42.1758 130.737 42.2718C129.588 40.3107 128.422 38.3588 127.294 36.3886C123.688 30.0917 120.101 23.7834 116.5 17.4842C114.22 13.4958 111.928 9.51193 109.625 5.53265C109.449 5.22866 109.346 4.58412 108.751 5.01153C107.874 5.64008 106.793 5.8435 105.905 6.41719C103.291 8.10398 100.358 9.1828 97.6795 10.7485C95.1247 12.241 92.3592 13.3266 89.7769 14.7734C87.4006 16.106 84.9396 17.2831 82.5129 18.5219C80.9242 19.3333 79.4087 20.2909 77.7169 20.8943C77.2956 21.0452 77.069 21.3812 76.8378 21.7355C73.3718 27.045 69.8943 32.3499 66.4215 37.6571C66.3505 37.5634 66.2773 37.4674 66.2063 37.3737C67.312 34.9349 68.3147 32.4413 69.5532 30.0711C70.7826 27.7169 71.8219 25.2713 73.0719 22.9308C73.3306 22.4463 73.2848 22.2109 72.6987 22.0714C70.7116 21.6006 68.7566 20.9378 66.7443 20.6406C65.492 20.4555 65.4417 19.859 65.5927 18.9653C65.9705 16.7322 65.9613 16.7939 63.8781 16.0237C62.8799 15.6557 62.6556 16.1037 62.5984 16.8785C62.4152 19.3218 62.2618 21.7652 62.0993 24.2108C62.0375 24.2108 61.9779 24.2108 61.9161 24.2108C61.6414 22.9674 61.2454 21.7515 61.179 20.4601C61.1469 19.8292 61.0119 18.835 60.3686 18.8807C59.3842 18.9516 58.6173 18.5219 57.7611 18.3162C49.7714 16.3848 41.7864 14.442 33.8105 12.4558C33.1763 12.2981 32.9268 12.4375 32.6452 12.9404C29.9988 17.6693 27.2631 22.3503 24.6991 27.1227C21.8603 32.4048 18.8728 37.6023 16.0066 42.8661C14.9398 44.8248 13.6601 46.6808 12.8955 48.7995C12.3849 49.1012 12.2293 49.5927 12.0232 50.3721C12.5978 49.8166 12.8359 49.3801 12.9733 48.8818C13.1793 48.6144 13.4105 48.363 13.5891 48.0773C17.7717 41.3301 21.9519 34.5784 26.1253 27.8266C28.5588 23.8885 30.9809 19.9435 33.4075 16.0031C33.5197 16.0031 33.6319 16.0008 33.7441 15.9985C35.1245 19.2441 36.553 22.4714 37.8763 25.7399C39.7237 30.3088 41.6582 34.8435 43.5354 39.4011C44.9754 42.8958 46.3856 46.4156 47.9789 49.8509C48.3338 50.6166 48.0774 50.9526 47.2921 50.9C46.1383 50.82 44.9662 50.9252 43.8971 51.2132C42.7982 51.5103 41.7497 51.14 40.5982 51.4829C38.8355 52.0063 36.8873 52.0634 34.9917 52.0771C34.2843 52.0817 33.5792 52.2463 32.8741 52.3377C59.0179 52.8291 85.1433 52.7103 111.271 52.6508C98.3938 51.8486 85.505 51.2589 72.6507 50.1823C72.6392 50.0978 72.63 50.0109 72.6186 49.9264C73.6717 48.0293 75.4413 46.7242 76.6981 44.978C78.1472 42.9666 79.997 41.2707 81.6064 39.3759C84.9762 35.4104 88.4582 31.5408 91.8945 27.6301C91.9586 27.5638 92.025 27.4952 92.0891 27.4289C96.7546 22.172 101.42 16.9151 106.086 11.6558C106.148 11.5896 106.209 11.5233 106.274 11.457C107.036 10.6296 107.798 9.8022 108.625 8.90395C109.485 10.5222 110.314 12.0124 111.081 13.5323C114.199 19.699 117.496 25.7742 120.65 31.9202C123.171 36.8297 125.769 41.7118 128.441 46.5482C129.652 48.7401 130.785 50.9755 131.957 53.1879C132.129 53.5125 132.239 53.8508 132.745 53.8805C134.936 54.0039 137.124 54.1913 139.315 54.3285C140.943 54.429 142.579 54.413 144.2 54.5822C147.705 54.9479 151.233 54.9319 154.733 55.2679C156.519 55.4393 158.309 55.3044 160.074 55.5239C162.934 55.8827 165.814 55.8804 168.68 56.1227C171.768 56.3855 174.875 56.4427 177.958 56.8198C178.155 56.8449 178.444 56.9044 178.448 56.4724C176.28 56.0656 174.112 55.6153 171.926 55.2724C171.184 55.1559 171.102 54.909 171.381 54.3193C172.059 52.8817 172.73 51.4394 173.405 49.9972C173.767 49.9492 173.748 49.6589 173.78 49.4052C176.972 43.5403 179.581 37.3783 182.937 31.3579C183.187 31.9636 183.352 32.3362 183.496 32.7179C185.653 38.4502 187.805 44.1826 189.959 49.9149C190.657 51.7731 191.364 53.6268 192.058 55.4873C192.129 55.6747 192.399 55.8896 192.115 56.0747C191.884 56.2255 191.584 56.2095 191.378 56.0038C191.222 55.8484 191.094 55.6427 191.019 55.4347C189.531 51.4143 188.052 47.3893 186.573 43.3643C186.516 43.2958 186.456 43.2295 186.399 43.1609C186.001 42.0135 185.6 40.8639 185.202 39.7165C185.142 39.6479 185.085 39.5793 185.025 39.5108C184.625 38.368 184.224 37.2274 183.823 36.0846H183.821ZM83.3142 61.1534C79.0836 61.1534 74.853 61.1465 70.6246 61.1648C70.2606 61.1648 69.7295 60.8676 69.6677 61.7042C69.5074 63.8755 69.3014 66.0423 69.1755 68.2159C69.1228 69.1485 69.0954 70.0947 68.9786 71.0181C68.507 74.7368 68.4315 78.4875 68.0766 82.2154C67.9232 83.8176 67.7538 85.4221 67.7058 87.0289C67.6943 87.4152 67.4127 88.222 68.3582 88.2152C69.9195 88.206 71.4831 88.2152 73.0444 88.2106C73.2962 88.2106 73.5801 88.2677 73.5847 87.8312C73.5893 87.1615 73.7884 86.5124 73.8159 85.8313C73.9052 83.6576 74.1089 81.4886 74.244 79.3149C74.2692 78.8989 74.45 78.8304 74.8186 78.8281C76.4165 78.8212 78.0168 78.771 79.6147 78.7618C84.8114 78.7275 90.0127 78.8601 95.2002 78.4921C97.4826 78.3298 98.7532 77.1459 99.1973 75.2877C99.5178 73.9437 99.5087 72.5563 99.6826 71.1964C99.8772 69.6719 99.8658 68.1405 100.047 66.6137C100.326 64.2732 100.092 62.3762 97.8398 61.5579C97.1461 61.3065 96.4273 61.1396 95.6626 61.1419C91.5465 61.1625 87.4303 61.1511 83.3165 61.1511L83.3142 61.1534ZM120.156 75.8225C121.035 75.8225 121.646 75.8316 122.255 75.8202C122.633 75.8134 122.853 75.7128 122.573 75.2762C121.184 73.1003 120.456 70.6067 119.233 68.3508C119.032 67.9782 118.853 67.6445 119.121 67.2103C120.545 64.8995 121.928 62.5636 123.379 60.2711C123.716 59.7386 123.636 59.6174 123.072 59.6151C122.157 59.6128 121.241 59.6517 120.328 59.6014C119.641 59.5626 119.224 59.7705 118.874 60.4037C117.919 62.1339 116.85 63.8001 115.889 65.528C115.422 66.3646 114.691 66.2754 114.002 66.168C113.228 66.0492 113.654 65.3749 113.629 64.9543C113.54 63.4413 113.805 61.9487 114 60.4539C114.071 59.9008 113.982 59.5786 113.315 59.606C112.402 59.6426 111.484 59.6563 110.571 59.6014C109.831 59.5557 109.63 59.8711 109.698 60.5339C109.865 62.1316 109.52 63.7064 109.435 65.2926C109.261 68.5313 108.805 71.7518 108.753 74.9997C108.744 75.5551 108.847 75.8614 109.485 75.8362C110.323 75.8019 111.163 75.8271 112.001 75.8294C112.368 75.8294 112.647 75.8019 112.686 75.3014C112.807 73.7289 112.963 72.1563 113.148 70.5884C113.196 70.177 112.791 69.4388 113.599 69.4342C114.3 69.4296 115.206 68.9542 115.639 70.081C116.127 71.3564 116.855 72.5495 117.255 73.8477C117.768 75.5048 118.668 76.2751 120.151 75.8271L120.156 75.8225ZM185.598 59.6106C184.38 59.6106 183.16 59.6243 181.942 59.6037C181.424 59.5946 181.099 59.6608 181.051 60.3122C180.863 62.8241 180.536 65.3292 180.424 67.8457C180.348 69.5827 180.241 71.3107 179.95 73.0203C179.531 75.4728 179.799 75.8271 182.221 75.8271C182.601 75.8271 182.983 75.8111 183.363 75.8271C183.844 75.8499 184.073 75.6442 184.05 75.1597C183.997 74.0237 184.263 72.8992 184.247 71.7769C184.231 70.7164 184.634 70.5198 185.586 70.5267C187.205 70.5358 188.837 70.737 190.433 70.1564C193.226 69.1416 194.817 66.504 194.306 63.5944C193.885 61.1899 191.751 59.6426 188.798 59.6106C187.731 59.5991 186.664 59.6106 185.598 59.6106ZM155.1 59.6037C153.685 59.51 152.359 59.5923 151.08 60.2528C148.82 61.4185 147.975 64.0378 148.158 65.4092C148.394 67.176 150.233 68.7348 152.378 69.1828C153.367 69.3885 154.319 69.7564 155.301 69.9987C156.031 70.1793 156.629 70.4627 156.583 71.3198C156.537 72.1404 156.004 72.602 155.242 72.8238C153.799 73.242 152.428 73.066 151.057 72.4581C150.37 72.1541 149.8 71.2192 149.111 71.4935C148.447 71.7564 148.044 72.6318 147.467 73.1735C146.92 73.6877 147.048 73.9986 147.588 74.4146C150.427 76.595 155.374 76.8167 158.405 74.8717C160.193 73.7243 160.859 71.9735 160.674 69.9964C160.484 67.9485 159.053 66.9428 157.123 66.376C155.857 66.0057 154.504 65.944 153.312 65.32C152.762 65.0321 152.135 64.7189 152.293 64.015C152.433 63.3956 152.884 62.8859 153.614 62.7784C154.928 62.5819 156.283 62.5384 157.455 63.151C158.653 63.775 159.479 64.2527 160.354 62.6299C160.93 61.5602 161.157 61.3499 160.079 60.6939C158.538 59.7591 156.849 59.4277 155.095 59.6037H155.1ZM20.7248 53.9102C20.7248 53.7936 20.7248 53.6771 20.7226 53.5582C18.8156 53.7799 16.9086 53.9879 15.0039 54.2348C14.7315 54.269 14.4728 54.3925 14.2805 54.1411C14.0653 53.8599 14.3492 53.6428 14.4705 53.4439C16.002 50.9252 17.4168 48.3378 18.8888 45.7871C23.8291 37.2388 28.6412 28.6129 33.5083 20.0212C33.6823 19.715 33.8402 19.4224 33.7807 19.0613C33.7303 18.7619 33.7029 18.4076 33.3549 18.3299C33.0252 18.2567 32.9428 18.5973 32.8123 18.8167C31.3014 21.3652 29.795 23.9159 28.2841 26.4644C23.9299 33.8127 19.571 41.161 15.2191 48.5116C13.8386 50.8452 12.4719 53.1857 10.929 55.8096C14.3927 55.1353 17.5588 54.5205 20.7248 53.9056V53.9102ZM128.326 59.6128C128.097 59.6128 127.859 59.654 127.642 59.606C126.433 59.3363 125.941 60.0311 125.987 61.0368C126.048 62.3762 125.682 63.663 125.719 64.9932C125.76 66.4651 125.446 67.9119 125.307 69.3725C125.119 71.329 125.11 73.3014 125.021 75.2671C125.002 75.6511 125.172 75.8294 125.554 75.8248C125.934 75.8202 126.316 75.8294 126.696 75.8294C129.047 75.8294 129.038 75.8294 129.153 73.5049C129.176 73.0569 129.336 72.618 129.366 72.1701C129.606 68.5199 129.842 64.8675 130.055 61.2173C130.149 59.6151 130.123 59.6151 128.436 59.6151C128.397 59.6151 128.361 59.6151 128.322 59.6151L128.326 59.6128ZM9.69273 88.126C9.69273 88.126 9.69273 88.1397 9.69273 88.1466C9.99721 88.1466 10.3017 88.1466 10.6062 88.1466C11.254 88.142 11.9866 88.3203 12.5223 88.0757C13.0511 87.8335 12.7077 87.0426 12.7741 86.5101C13.0511 84.2862 13.2068 82.0463 13.3877 79.8109C13.4151 79.4658 13.2388 79.1481 12.9824 78.9241C11.515 77.6396 10.0338 76.3688 8.55953 75.0934C7.87503 74.5014 7.70562 74.9174 7.6896 75.5482C7.6667 76.3459 7.73309 77.1459 7.66899 77.939C7.46754 80.4715 7.15161 82.9971 7.03486 85.5318C6.99594 86.3889 6.41446 87.5889 7.02341 88.0346C7.61634 88.4689 8.7793 88.1283 9.69273 88.1283V88.126ZM107.205 87.6529C107.205 88.0849 107.219 88.2769 107.203 88.4643C107.159 88.9466 107.256 89.3534 107.851 89.23C108.48 89.0997 109.414 89.7282 109.675 88.6517C109.861 87.8906 109.852 87.0815 109.95 86.2975C109.994 85.941 109.701 85.3536 110.417 85.381C110.946 85.4016 111.585 85.0587 111.875 85.9798C112.123 86.7615 112.514 87.502 112.713 88.318C112.906 89.1111 115.062 89.6757 115.598 89.1088C115.786 88.9123 115.705 88.6883 115.618 88.4734C115.298 87.6758 114.991 86.8712 114.65 86.0804C114.304 85.2804 114.105 84.6702 115.069 83.9959C116.253 83.1685 116.333 81.8245 115.859 80.5172C115.458 79.4109 114.506 79.0064 113.421 78.9698C111.823 78.9149 110.223 78.9515 108.625 78.9332C108.174 78.9287 107.929 79.0612 107.887 79.5618C107.665 82.3388 107.42 85.1159 107.205 87.6506V87.6529ZM182.926 83.3925C182.926 80.1629 181.09 78.835 178.109 78.7915C174.593 78.7412 172.828 81.2783 172.636 84.6427C172.498 87.0404 174.611 89.1797 176.823 89.2551C180.813 89.3923 182.926 86.8826 182.926 83.3925ZM121.747 89.2323C125.096 89.2323 127.44 86.8804 127.282 83.4062C127.136 80.1538 125.797 78.8944 122.473 78.8029C119.107 78.7115 117.081 81.2509 117.026 84.4964C116.978 87.1843 118.862 89.2734 121.747 89.2323ZM11.8767 61.1762C11.8767 61.1648 11.8767 61.1534 11.8767 61.1396C11.0778 61.1396 10.2788 61.1602 9.47983 61.1305C9.01281 61.1145 8.83425 61.2265 8.80677 61.7453C8.69231 63.9532 8.66713 66.1817 8.30771 68.3531C8.09938 69.6124 8.43362 70.9038 7.93684 72.1198C7.86358 72.3003 7.89334 72.6683 8.01468 72.7529C8.23216 72.9037 8.49085 72.7529 8.73123 72.5883C10.3452 71.4752 11.9797 70.3896 13.596 69.2787C13.8386 69.1119 14.0561 68.9176 14.0859 68.5588C14.221 66.9246 14.4041 65.2949 14.5323 63.6607C14.5964 62.8356 14.5827 62.0036 14.6056 61.1739H11.8744L11.8767 61.1762ZM156.585 78.9401C155.699 78.9401 154.974 78.9698 154.253 78.9309C153.632 78.8989 153.458 79.1069 153.367 79.7515C153.119 81.5091 153.298 83.2873 152.973 85.0404C152.76 86.1787 152.792 87.3626 152.728 88.526C152.705 88.9443 152.815 89.3283 153.348 89.2323C153.969 89.1203 154.781 89.63 155.18 88.8803C155.429 88.4117 155.512 87.7649 155.434 87.2323C155.248 85.9455 155.844 85.6553 156.952 85.8153C157.213 85.8518 157.485 85.8061 157.751 85.8221C159.523 85.9295 160.729 85.0381 161.411 83.525C162.05 82.1102 161.729 79.6189 159.468 79.1229C158.433 78.8967 157.43 79.0544 156.583 78.9355L156.585 78.9401ZM187.56 89.23C188.601 89.3328 189.604 89.0243 190.559 88.526C192.058 87.742 192.218 86.2724 192.088 84.9056C192.003 84.0325 191.078 83.5548 190.146 83.2279C189.425 82.9742 188.684 82.8645 187.965 82.6519C187.379 82.4805 186.957 82.2245 187.047 81.5823C187.127 81.0109 187.564 80.8189 188.127 80.7914C189.027 80.7457 189.851 80.924 190.65 81.3491C191.474 81.7857 191.667 80.9766 192.031 80.5537C192.326 80.2109 192.351 79.8955 191.877 79.6395C190.442 78.867 187.628 78.2041 185.827 79.4978C184.877 80.1789 184.153 81.0909 184.29 82.3502C184.423 83.5731 185.241 84.293 186.362 84.6702C187.109 84.9216 187.869 85.1433 188.631 85.3444C189.098 85.4656 189.535 85.5867 189.549 86.1741C189.56 86.7135 189.203 86.9558 188.761 87.1706C187.486 87.7923 186.484 87.0495 185.472 86.5078C184.444 85.957 184.357 86.9649 183.954 87.3672C183.427 87.8883 183.97 88.1603 184.364 88.3774C185.337 88.9168 186.358 89.3077 187.557 89.23H187.56ZM105.587 43.586C105.587 42.9803 105.587 42.4478 105.587 41.9152C105.587 41.6158 105.626 41.3895 105.163 41.2981C103.664 41.0078 102.157 40.7999 100.64 40.6444C100.379 40.617 100.118 40.5987 100.092 41.0101C99.9528 43.2935 99.7925 45.5768 99.6392 47.8602C99.6048 48.379 99.8292 48.619 100.367 48.6327C101.29 48.6533 102.21 48.4704 103.142 48.8201C103.643 49.0098 104.273 48.8384 104.843 48.8704C105.239 48.891 105.401 48.7653 105.36 48.3607C105.193 46.7333 105.69 45.1357 105.587 43.5837V43.586ZM105.816 35.5795C105.816 34.5418 105.8 33.783 105.82 33.0219C105.834 32.5305 105.678 32.2745 105.145 32.1785C103.799 31.9339 102.462 31.6391 101.127 31.3305C100.743 31.2414 100.55 31.2757 100.553 31.7145C100.569 33.9818 100.175 36.2332 100.319 38.5051C100.333 38.7154 100.255 39.0399 100.585 39.0239C102.137 38.9554 103.609 39.6113 105.163 39.5085C105.534 39.4833 105.552 39.3119 105.596 39.0102C105.774 37.7783 105.884 36.5463 105.813 35.5795H105.816ZM107.443 32.6927C107.352 34.8527 107.544 36.9737 107.198 39.0696C107.098 39.6845 107.368 39.9427 108.023 39.9747C108.876 40.0159 109.735 40.1416 110.575 40.313C111.727 40.5484 111.944 40.3884 111.994 39.1839C112.059 37.6823 111.818 36.1715 112.198 34.6744C112.308 34.2378 112.368 33.6573 111.608 33.5613C110.218 33.3876 108.851 33.0836 107.441 32.6905L107.443 32.6927ZM31.3563 39.8993C33.6502 40.0753 33.9089 39.9907 34.1584 38.4297C34.4171 36.8183 34.5179 35.1795 34.6621 33.5499C34.6827 33.3281 34.8086 33.031 34.4446 32.8779C33.4739 32.4687 31.9928 33.4927 31.9126 34.5464C31.7799 36.3155 31.5509 38.0777 31.3563 39.897V39.8993ZM30.6558 47.5493C31.1091 47.243 31.5532 47.2202 31.9996 47.2636C32.7459 47.339 33.055 47.1082 33.1031 46.2739C33.1763 44.9848 33.4053 43.7003 33.5701 42.4158C33.7807 40.7519 33.87 40.8021 32.3087 40.8501C31.6425 40.8707 31.0702 41.1038 31.0725 41.7095C31.0816 43.6157 30.2712 45.4511 30.6558 47.5493ZM181.985 50.9412H181.992C181.992 50.7126 182.013 50.4841 181.987 50.2578C181.932 49.7412 182.312 49.067 181.221 49.0464C180.165 49.0281 180.401 49.6361 180.392 50.2006C180.383 50.8086 180.403 51.4166 180.387 52.0246C180.373 52.5754 180.309 53.0165 181.163 53.0028C181.923 52.9914 182.07 52.7308 181.994 52.0817C181.951 51.7069 181.985 51.3229 181.985 50.9435V50.9412ZM179.467 56.6621C179.348 56.5524 179.286 56.4495 179.208 56.4358C179.13 56.4221 179.036 56.493 178.95 56.5295C179.014 56.6072 179.062 56.7169 179.142 56.7489C179.208 56.7764 179.311 56.7078 179.467 56.6621ZM180.167 56.653C180.11 56.7261 180.023 56.8084 180.035 56.8289C180.087 56.9112 180.158 57.0141 180.245 57.0392C180.351 57.0712 180.493 57.0164 180.435 56.8678C180.403 56.7855 180.28 56.7375 180.167 56.653ZM10.8214 52.1366C10.7939 52.2006 10.7298 52.2783 10.7481 52.324C10.7664 52.3697 10.8649 52.3834 10.929 52.4108C10.9564 52.3468 11.0205 52.2691 11.0022 52.2234C10.9839 52.1777 10.8855 52.164 10.8214 52.1343V52.1366ZM180.708 37.8377C180.696 37.8697 180.676 37.904 180.678 37.936C180.678 37.9474 180.731 37.9565 180.758 37.9657C180.77 37.9337 180.79 37.8994 180.788 37.8674C180.788 37.856 180.735 37.8468 180.708 37.8377ZM21.6268 53.8211C21.6566 53.8051 21.6886 53.7868 21.7184 53.7708C21.6909 53.7479 21.6657 53.7114 21.6383 53.7091C21.6085 53.7068 21.5765 53.7388 21.5467 53.7548C21.5742 53.7776 21.5994 53.7982 21.6268 53.8211ZM181.601 36.1875L181.658 36.2332L181.667 36.1577L181.601 36.1897V36.1875ZM181.383 36.6377L181.427 36.6743L181.436 36.6149L181.383 36.6377Z" fill="#00330C"/>
<path d="M5.16603 64.6094C5.48196 64.9911 5.57811 65.3271 4.97831 65.5236C4.99662 65.2105 4.75396 64.8425 5.16603 64.6094Z" fill="#01370D"/>
<path d="M5.38768 61.4082C5.70589 61.7899 5.80204 62.1259 5.20225 62.3225C5.21827 62.0093 4.98248 61.6436 5.38768 61.4082Z" fill="#01370D"/>
<path d="M199.782 59.816C199.724 59.763 199.669 59.7076 199.611 59.6546C199.775 59.5947 199.821 59.6615 199.782 59.816Z" fill="#01370D"/>
<path d="M91.8919 27.6372C88.4557 31.5457 84.9737 35.4175 81.6038 39.3831C79.9945 41.2778 78.1447 42.9715 76.6956 44.9851C75.4388 46.7291 73.6669 48.0342 72.6161 49.9335C72.5062 50.0341 72.394 50.1346 72.6481 50.1895C85.5048 51.266 98.3912 51.858 111.269 52.658C85.1431 52.7174 59.0176 52.8385 32.8716 52.3448C33.5767 52.2534 34.2841 52.0889 34.9892 52.0843C36.8847 52.0706 38.8329 52.0134 40.5957 51.49C41.7449 51.1495 42.7934 51.5174 43.8946 51.2203C44.9637 50.9323 46.1358 50.8272 47.2896 50.9072C48.0748 50.962 48.3312 50.6261 47.9764 49.8581C46.383 46.4228 44.9705 42.9029 43.5329 39.4082C41.6556 34.8507 39.7212 30.316 37.8737 25.747C36.5505 22.4786 35.1243 19.2513 33.7415 16.0057C33.7141 15.8731 33.6316 15.8023 33.5034 15.8411C33.4577 15.8548 33.4371 15.9508 33.405 16.0103C30.9784 19.953 28.5563 23.898 26.1228 27.8338C21.9494 34.5878 17.7691 41.3373 13.5866 48.0844C13.4103 48.3701 13.1768 48.6216 12.9708 48.889C12.9433 48.8616 12.9158 48.8341 12.8906 48.8067C13.6575 46.6902 14.9373 44.8343 16.0041 42.8755C18.8703 37.6117 21.8578 32.4142 24.6965 27.1321C27.2605 22.3597 29.9962 17.6788 32.6427 12.9498C32.9243 12.447 33.1738 12.3053 33.8079 12.4653C41.7838 14.4515 49.7689 16.3965 57.7585 18.3256C58.6124 18.5313 59.3816 18.961 60.366 18.8901C61.0093 18.8444 61.1421 19.8387 61.1765 20.4695C61.2428 21.7609 61.6389 22.9768 61.9136 24.2202C61.9273 24.3939 61.9411 24.5676 61.9548 24.7413C62.0029 24.7413 62.0487 24.7391 62.0967 24.7368V24.2202C62.2616 21.7769 62.4127 19.3313 62.5958 16.8879C62.653 16.1131 62.8774 15.6651 63.8755 16.0331C65.9588 16.8011 65.9679 16.7394 65.5902 18.9747C65.4391 19.8684 65.4895 20.4649 66.7417 20.6501C68.754 20.9449 70.7091 21.6078 72.6962 22.0809C73.2822 22.2203 73.3303 22.4557 73.0693 22.9403C71.8171 25.2808 70.78 27.7264 69.5507 30.0806C68.3122 32.4508 67.3095 34.9444 66.2037 37.3831C65.9176 37.6254 65.7711 37.9363 65.636 38.3248C66.1648 38.2951 66.2816 37.9683 66.4189 37.6666C69.8918 32.3593 73.367 27.0544 76.8352 21.7449C77.0665 21.3906 77.2931 21.0523 77.7143 20.9038C79.4061 20.3004 80.9216 19.3427 82.5104 18.5313C84.9371 17.2925 87.4003 16.1131 89.7743 14.7829C92.3589 13.3338 95.1221 12.2481 97.677 10.7579C100.355 9.19452 103.288 8.11342 105.902 6.42663C106.791 5.85294 107.874 5.64952 108.748 5.02097C109.343 4.59356 109.446 5.2381 109.623 5.54209C111.926 9.51908 114.215 13.5029 116.497 17.4936C120.098 23.7928 123.686 30.1011 127.291 36.398C128.42 38.3705 129.585 40.3225 130.734 42.2812C130.828 42.6241 130.892 42.9875 131.343 43.1132C131.472 42.6629 131.233 42.3361 131.043 41.9955C130.357 40.1556 129.67 38.3157 128.93 36.3363C131.941 37.0746 134.832 37.7831 137.813 38.5145C137.202 39.2894 136.334 39.2048 135.686 39.6642C137.193 39.9682 138.632 39.5293 139.951 39.1682C143.458 38.2105 147.025 37.5271 150.539 36.6129C151.219 36.4369 151.446 36.1878 151.345 35.5546C151.21 34.709 151.631 33.9204 151.597 33.0793C151.578 32.6405 151.922 32.5422 152.274 32.4508C153.524 32.1285 154.783 31.8314 156.011 31.4405C156.78 31.1937 156.858 31.4931 156.8 32.1285C156.505 35.3901 156.223 38.6539 155.944 41.9178C155.94 41.9841 155.997 42.055 156.054 42.1875C156.585 41.9475 156.59 41.3944 156.741 40.9853C157.412 39.1751 158.048 37.3489 158.65 35.5158C158.852 34.9055 159.188 34.5832 159.813 34.4347C165.456 33.0976 171.095 31.7331 176.738 30.3868C178.839 29.8863 180.955 29.4406 183.049 28.9172C183.601 28.78 183.894 28.8418 184.102 29.3926C186.131 34.7455 188.175 40.0939 190.21 45.4468C190.263 45.5863 190.258 45.7462 190.281 45.8948C190.27 46.2605 190.421 46.5554 190.689 46.7953C190.785 47.1085 190.883 47.4193 190.98 47.7325C190.95 47.8696 191.03 47.913 191.147 47.9267C191.472 48.8456 191.797 49.7644 192.124 50.6855C192.072 50.9118 192.129 51.0672 192.39 51.09C192.323 52.0683 193.134 52.7517 193.26 53.6637C193.239 53.7985 193.317 53.8488 193.436 53.8625C193.761 54.7813 194.084 55.7001 194.409 56.619C194.324 56.9732 194.544 57.1447 194.812 57.2887C194.514 57.7755 194.049 57.4715 193.663 57.5332C193.514 57.2749 193.36 57.2772 193.2 57.5218C190.455 57.5675 190.444 57.5698 189.615 55.099C187.36 48.3816 185.114 41.6641 182.864 34.9444C182.793 34.725 182.715 34.7638 182.633 34.9375C182.369 35.1889 182.312 35.6232 181.843 35.8083C181.88 34.9855 182.553 34.4827 182.672 33.7696C182.756 33.7536 182.843 33.7353 182.928 33.7193C183.171 34.4347 183.411 35.1524 183.654 35.8678C183.711 35.9432 183.766 36.0163 183.823 36.0918C184.224 37.2346 184.624 38.3751 185.023 39.5179C185 39.6551 185.082 39.7053 185.199 39.7236C185.597 40.871 185.998 42.0207 186.396 43.1681C186.454 43.2366 186.513 43.3029 186.57 43.3715C188.052 47.3965 189.528 51.4192 191.016 55.4419C191.092 55.6499 191.22 55.8556 191.376 56.011C191.582 56.2167 191.884 56.2327 192.113 56.0818C192.394 55.8967 192.124 55.6796 192.055 55.4944C191.362 53.6362 190.654 51.7803 189.956 49.9221C187.802 44.1897 185.65 38.4574 183.494 32.725C183.349 32.3433 183.184 31.9685 182.935 31.3651C179.579 37.3854 176.969 43.5475 173.778 49.4101C173.215 49.3324 173.34 49.6889 173.402 50.0044C172.729 51.4443 172.058 52.8865 171.379 54.3265C171.099 54.9162 171.182 55.163 171.923 55.2796C174.11 55.6224 176.278 56.0727 178.446 56.4795C178.441 56.9115 178.155 56.8521 177.956 56.827C174.874 56.4475 171.768 56.3904 168.677 56.1298C165.811 55.8876 162.931 55.8899 160.072 55.531C158.309 55.3093 156.516 55.4464 154.731 55.275C151.23 54.939 147.703 54.9527 144.198 54.5893C142.579 54.4202 140.94 54.4385 139.312 54.3356C137.122 54.1985 134.933 54.0111 132.742 53.8876C132.236 53.8579 132.126 53.5219 131.955 53.1951C130.782 50.9826 129.649 48.7473 128.438 46.5554C125.767 41.719 123.168 36.8369 120.648 31.9274C117.491 25.779 114.194 19.7061 111.079 13.5395C110.309 12.0196 109.483 10.5293 108.622 8.9111C107.793 9.80936 107.031 10.6368 106.271 11.4641C106.209 11.5304 106.147 11.5967 106.083 11.663C101.418 16.9199 96.7521 22.1769 92.0865 27.4361C92.0224 27.5024 91.956 27.571 91.8919 27.6372ZM131.726 43.9337L131.787 43.9795L131.797 43.9063L131.726 43.9337ZM131.54 43.5635L131.584 43.4789L131.513 43.472L131.54 43.5635Z" fill="#0FB63C"/>
<path d="M83.3149 61.1616C87.431 61.1616 91.5472 61.173 95.661 61.1524C96.4257 61.1479 97.1445 61.3147 97.8382 61.5684C100.089 62.3867 100.322 64.2837 100.045 66.6242C99.8642 68.151 99.8734 69.6824 99.6811 71.2069C99.5071 72.5668 99.5185 73.9542 99.1957 75.2982C98.7516 77.1564 97.481 78.3403 95.1986 78.5026C90.0111 78.8706 84.8098 78.738 79.6131 78.7723C78.0152 78.7837 76.4149 78.8317 74.817 78.8386C74.4484 78.8386 74.2699 78.9095 74.2424 79.3254C74.1073 81.4991 73.9059 83.6681 73.8143 85.8418C73.7868 86.5229 73.5877 87.1697 73.5831 87.8417C73.5808 88.2759 73.2946 88.2188 73.0428 88.2211C71.4815 88.2279 69.9179 88.2165 68.3566 88.2257C67.4111 88.2302 67.6927 87.4234 67.7042 87.0394C67.7522 85.4326 67.9239 83.8281 68.075 82.2259C68.4299 78.498 68.5031 74.7496 68.977 71.0286C69.0938 70.1052 69.1212 69.1567 69.1739 68.2264C69.2998 66.0505 69.5058 63.8838 69.6661 61.7147C69.7279 60.8782 70.259 61.1776 70.623 61.1753C74.8536 61.1547 79.082 61.1639 83.3126 61.1639L83.3149 61.1616ZM83.7453 73.9291V73.9611C86.41 73.9611 89.0725 73.9679 91.7372 73.9588C93.1726 73.9542 93.6373 73.5542 93.9326 72.1554C94.2806 70.5029 94.1936 68.8138 94.3836 67.1499C94.466 66.4322 94.0173 65.8882 93.4427 65.7922C92.7536 65.678 92.0783 65.4677 91.3434 65.4791C88.1476 65.5317 84.9494 65.502 81.7536 65.502C80.1167 65.502 78.4799 65.4677 76.8453 65.5203C76.1906 65.5408 75.2772 65.4174 75.1856 66.4002C74.9773 68.6379 74.8765 70.8869 74.7003 73.1268C74.6476 73.7851 74.8903 73.9519 75.5267 73.9428C78.267 73.9108 81.0073 73.9291 83.7476 73.9291H83.7453Z" fill="white"/>
<path d="M30.5162 66.2144C29.003 67.2955 27.4921 68.3743 25.9789 69.4554C25.8072 69.396 25.7614 69.5171 25.711 69.636C23.8933 70.9456 22.0756 72.2553 20.2579 73.5649C20.0954 73.5032 20.0496 73.613 20.013 73.7318C19.4132 73.9809 19.6879 74.2415 19.9969 74.5135C20.9172 75.3226 21.8352 76.134 22.7532 76.9431C22.7899 77.0688 22.8448 77.1694 23.0051 77.1237C25.3928 79.2516 27.7691 81.3909 30.1728 83.5006C31.6929 84.8354 33.2611 86.1176 34.7904 87.4433C35.0925 87.7038 35.4817 87.9392 35.5504 88.3781C35.5779 88.5564 35.3627 88.5655 35.2116 88.5655C32.8513 88.5655 30.4911 88.6021 28.1331 88.5312C27.7233 88.5198 27.2883 88.1015 26.9289 87.7953C23.0783 84.504 19.2392 81.2012 15.4 77.8939C14.1478 76.8151 12.9116 75.7157 11.6616 74.6301C11.1557 74.1912 10.9428 73.9284 11.7143 73.3958C15.558 70.7445 19.3399 68.004 23.1447 65.2956C24.4405 64.3722 25.8003 63.5288 27.0182 62.5117C28.5703 61.218 30.3079 60.7655 32.2767 60.8546C33.6823 60.9186 35.0948 60.8683 36.5028 60.8957C36.7843 60.9003 37.1987 60.7312 37.3361 61.0397C37.5513 61.5243 36.8576 61.3826 36.7523 61.7003C36.7225 61.7894 36.5852 61.842 36.4982 61.9105C36.3288 61.8625 36.2784 61.9791 36.2303 62.1003C34.4126 63.4054 32.5949 64.7127 30.7772 66.0178C30.6078 65.9698 30.5574 66.0864 30.5094 66.2075L30.5162 66.2144Z" fill="white"/>
<path d="M52.3164 74.1212C54.2165 74.0732 56.1166 74.0229 58.0167 73.9749C59.404 73.9407 59.6627 73.4995 59.8802 72.1579C60.1 70.7865 59.9122 69.3991 60.2648 68.0346C60.6837 66.405 59.9557 65.5318 58.2617 65.525C51.2106 65.4998 44.1619 65.5021 37.1109 65.493C36.7034 65.493 36.2982 65.493 35.7441 65.493C36.4332 64.1376 37.7358 63.6759 38.6699 62.8302C40.3914 61.2714 42.4815 60.8897 44.7731 60.9217C50.1827 60.9972 55.5969 60.9263 61.0088 60.9217C62.4831 60.9217 63.9093 61.084 65.0609 62.1697C65.6996 62.7708 65.9812 63.5342 66.0018 64.357C66.059 66.6907 65.8896 69.0106 65.5966 71.3328C65.4157 72.7704 65.5782 74.2446 65.125 75.6663C64.2665 78.3519 61.5743 79.5222 59.1545 78.1965C57.0575 77.0468 54.9902 75.8423 52.891 74.6949C52.6094 74.5395 52.3759 74.4275 52.3209 74.0984L52.3164 74.1235V74.1212Z" fill="white"/>
<path d="M120.157 75.8337C118.673 76.2817 117.773 75.5114 117.261 73.8543C116.86 72.5561 116.132 71.363 115.644 70.0876C115.212 68.9608 114.307 69.4362 113.605 69.4408C112.794 69.4454 113.202 70.1813 113.154 70.595C112.968 72.163 112.812 73.7332 112.691 75.308C112.652 75.8085 112.373 75.8382 112.007 75.836C111.169 75.836 110.329 75.8108 109.491 75.8428C108.852 75.868 108.751 75.5617 108.758 75.0063C108.811 71.7561 109.266 68.5357 109.44 65.2992C109.525 63.713 109.868 62.1382 109.704 60.5406C109.635 59.8777 109.836 59.5623 110.576 59.608C111.487 59.6629 112.405 59.6492 113.321 59.6126C113.985 59.5875 114.076 59.9097 114.005 60.4606C113.813 61.9554 113.547 63.4479 113.634 64.961C113.66 65.3815 113.234 66.0558 114.007 66.1746C114.697 66.282 115.427 66.3712 115.894 65.5347C116.855 63.809 117.924 62.1405 118.879 60.4103C119.227 59.7772 119.646 59.5692 120.333 59.608C121.244 59.6583 122.162 59.6194 123.078 59.6217C123.643 59.6217 123.721 59.7452 123.384 60.2777C121.933 62.5702 120.55 64.9061 119.126 67.2169C118.858 67.6511 119.037 67.9871 119.239 68.3574C120.459 70.6133 121.189 73.1069 122.579 75.2828C122.858 75.7194 122.638 75.82 122.26 75.8268C121.651 75.8383 121.04 75.8291 120.161 75.8291L120.157 75.8337Z" fill="#17DC45"/>
<path d="M172.619 72.6434C170.907 72.6297 169.192 72.6366 167.482 72.5886C166.928 72.5726 166.594 72.7691 166.493 73.2857C166.063 75.5164 164.689 76.2501 162.54 75.841C162.173 75.7702 161.784 75.8319 161.299 75.8319C162.872 72.2069 164.419 68.6664 165.946 65.1146C166.589 63.6175 167.203 62.1067 167.807 60.5936C168.071 59.9331 168.43 59.5354 169.229 59.5994C170.06 59.6679 170.921 59.7228 171.736 59.5902C173.013 59.3799 173.43 60.0291 173.721 61.0987C174.964 65.6928 176.23 70.2824 177.551 74.8559C177.793 75.697 177.564 75.8867 176.809 75.8342C176.582 75.8182 176.351 75.8342 176.124 75.8342C173.185 75.8342 173.132 75.7862 172.805 72.8171C172.812 72.6891 172.757 72.6228 172.622 72.6457L172.619 72.6434ZM170.451 63.3866C169.925 64.726 169.462 65.8254 169.064 66.9454C168.767 67.7842 167.913 68.7281 168.297 69.4138C168.588 69.9304 169.842 69.3567 170.669 69.4595C170.893 69.487 171.122 69.455 171.351 69.4618C171.788 69.4733 171.99 69.3018 171.871 68.8447C171.418 67.1122 170.971 65.3774 170.454 63.3866H170.451Z" fill="#17DC45"/>
<path d="M185.594 59.6108C186.661 59.6108 187.728 59.6017 188.794 59.6108C191.748 59.6428 193.881 61.1902 194.302 63.5947C194.813 66.5043 193.22 69.1419 190.429 70.1567C188.833 70.7372 187.201 70.5361 185.582 70.527C184.63 70.5201 184.227 70.7167 184.243 71.7772C184.262 72.8972 183.994 74.0217 184.046 75.1599C184.069 75.6422 183.838 75.8479 183.36 75.8273C182.98 75.809 182.597 75.8273 182.217 75.8273C179.793 75.8273 179.527 75.4753 179.946 73.0206C180.237 71.3109 180.345 69.583 180.42 67.8459C180.53 65.3317 180.86 62.8267 181.047 60.3125C181.095 59.6634 181.421 59.5971 181.938 59.604C183.156 59.6222 184.376 59.6108 185.594 59.6108ZM186.638 67.4162C186.638 67.4162 186.638 67.3957 186.638 67.3842C186.903 67.3842 187.171 67.3865 187.437 67.3842C189.419 67.3637 189.999 66.7442 189.994 64.6529C189.994 63.2815 189.337 62.765 187.501 62.7878C184.609 62.8267 184.671 62.2004 184.767 65.5969C184.783 66.1774 184.161 66.9042 184.738 67.2562C185.221 67.5511 185.99 67.3797 186.633 67.4139L186.638 67.4162Z" fill="#17DC45"/>
<path d="M155.098 59.6097C156.852 59.4338 158.542 59.7652 160.082 60.7C161.163 61.356 160.934 61.5662 160.357 62.6359C159.482 64.2587 158.656 63.781 157.459 63.157C156.284 62.5445 154.931 62.5879 153.617 62.7845C152.887 62.8942 152.436 63.4016 152.296 64.021C152.138 64.725 152.766 65.0381 153.315 65.3261C154.508 65.9501 155.861 66.0095 157.127 66.3821C159.057 66.9489 160.485 67.9546 160.678 70.0025C160.863 71.9796 160.197 73.7303 158.409 74.8777C155.378 76.8228 150.431 76.5988 147.592 74.4206C147.052 74.0046 146.921 73.6961 147.471 73.1795C148.047 72.6378 148.45 71.7624 149.114 71.4996C149.803 71.2276 150.373 72.1601 151.06 72.4641C152.431 73.0721 153.803 73.2481 155.245 72.8298C156.005 72.6081 156.541 72.1464 156.587 71.3259C156.632 70.4688 156.035 70.1853 155.305 70.0048C154.322 69.7625 153.37 69.3945 152.381 69.1888C150.236 68.7431 148.398 67.182 148.162 65.4152C147.979 64.0439 148.824 61.4245 151.083 60.2589C152.365 59.5983 153.691 59.516 155.103 59.6097H155.098Z" fill="#17DC45"/>
<path d="M32.6222 76.0144C34.2888 75.731 35.8959 75.1528 37.5923 75.0133C39.6779 74.8419 41.7245 74.5448 43.865 74.7962C45.9414 75.0408 47.9994 75.283 50.0278 75.779C53.0473 76.5173 55.7189 78.0144 58.2097 79.7834C60.6318 81.5022 62.7883 83.5433 64.3816 86.1009C64.7594 86.7089 65.0753 87.3283 65.2149 88.1008C63.2393 88.1008 61.2728 88.0871 59.3086 88.11C58.7797 88.1168 58.5027 87.8494 58.2326 87.4517C55.3183 83.1547 51.4746 80.0257 46.5 78.4144C44.2015 77.6692 41.8161 77.2464 39.3825 77.1481C35.8021 77.0018 32.2353 77.4704 28.5977 77.1824C29.8613 76.8556 31.1228 76.5264 32.3864 76.1996C32.549 76.243 32.6016 76.1493 32.6177 76.0122L32.6222 76.0144Z" fill="white"/>
<path d="M124.349 44.2804C125.487 46.6117 126.624 48.9408 127.758 51.2744C127.954 51.679 128.122 52.0995 128.302 52.5132C128.353 52.8149 128.401 53.1189 128.451 53.4206C127.062 53.9166 125.807 53.56 125.262 52.5155C125.434 52.4378 125.457 52.3624 125.258 52.2915C124.404 50.5293 123.717 48.6665 122.808 46.9637C121.686 44.8587 120.789 42.6713 119.795 40.5205C117.84 36.2876 115.874 32.0569 113.932 27.817C111.833 23.2344 109.752 18.6425 107.669 14.053C107.559 13.813 107.435 13.5662 107.392 13.3102C107.287 12.6885 107.687 12.2222 108.152 12.0417C108.557 11.8862 108.681 12.4645 108.837 12.7799C112.401 19.9956 115.995 27.1954 119.495 34.4431C120.837 37.2201 122.156 40.004 123.646 42.7056C123.879 43.1285 123.987 43.6199 124.152 44.0793C124.216 44.1478 124.282 44.2164 124.346 44.285L124.349 44.2804Z" fill="#0FB63C"/>
<path d="M146.573 60.9493C146.507 62.1987 145.842 62.8235 144.577 62.8235H143.778C141.354 62.8235 141.399 62.8258 141.264 65.3011C141.083 68.613 140.818 71.9203 140.605 75.2298C140.577 75.6641 140.41 75.8424 139.985 75.8333C139.451 75.8218 138.918 75.8333 138.387 75.8333C136.308 75.8333 136.164 75.8081 136.523 73.8059C136.766 72.4528 136.658 71.1043 136.864 69.7558C137.194 67.6073 137.208 65.4085 137.354 63.2326C137.375 63.068 137.404 62.8966 137.153 62.8943C135.825 62.8715 134.499 62.8258 133.172 62.8326C132.569 62.8372 132.428 62.6726 132.487 62.0395C132.716 59.6213 132.684 59.6167 135.159 59.6167C138.689 59.6167 142.221 59.6464 145.751 59.5962C146.646 59.5824 146.923 59.875 146.754 60.7001C146.692 60.7824 146.633 60.867 146.571 60.9493H146.573Z" fill="#17DC45"/>
<path d="M20.7236 53.9145C17.5575 54.5294 14.3937 55.1442 10.9277 55.8185C12.4707 53.1946 13.8374 50.8541 15.2179 48.5205C19.5698 41.1699 23.9286 33.8216 28.2829 26.4733C29.7938 23.9248 31.3002 21.3741 32.8111 18.8256C32.9416 18.6062 33.024 18.2633 33.3537 18.3388C33.7016 18.4165 33.7291 18.773 33.7795 19.0702C33.839 19.4313 33.681 19.7239 33.5071 20.0301C28.64 28.6218 23.8279 37.2455 18.8876 45.796C17.4133 48.3467 16.0008 50.9341 14.4693 53.4528C14.3479 53.6517 14.0664 53.8688 14.2793 54.15C14.4716 54.3991 14.7303 54.2779 15.0027 54.2437C16.9051 53.9968 18.8144 53.7888 20.7213 53.5671C20.7213 53.6837 20.7213 53.8002 20.7236 53.9191V53.9145Z" fill="#0FB63C"/>
<path d="M128.33 59.6184C128.369 59.6184 128.405 59.6184 128.444 59.6184C130.132 59.6184 130.157 59.6184 130.063 61.2206C129.85 64.8731 129.614 68.5232 129.374 72.1734C129.344 72.6213 129.184 73.0625 129.161 73.5082C129.046 75.8326 129.056 75.8326 126.704 75.8326C126.324 75.8326 125.942 75.8235 125.562 75.8281C125.177 75.8326 125.01 75.6544 125.029 75.2704C125.118 73.3047 125.127 71.3322 125.315 69.3757C125.455 67.9175 125.768 66.4684 125.727 64.9965C125.69 63.6663 126.057 62.3772 125.995 61.0401C125.947 60.0344 126.439 59.3396 127.65 59.6093C127.867 59.6573 128.106 59.6161 128.334 59.6161L128.33 59.6184Z" fill="#17DC45"/>
<path d="M9.69572 88.1289C8.78229 88.1289 7.61933 88.4695 7.0264 88.0352C6.41745 87.5895 6.99893 86.3919 7.03785 85.5325C7.1546 82.9977 7.46824 80.4721 7.67198 77.9396C7.73608 77.1465 7.67198 76.3465 7.69259 75.5489C7.7109 74.918 7.88031 74.502 8.56252 75.094C10.0368 76.3717 11.518 77.6402 12.9854 78.9247C13.2418 79.1487 13.4204 79.4664 13.3906 79.8116C13.2098 82.0469 13.0564 84.2868 12.7771 86.5107C12.7107 87.0433 13.0518 87.8341 12.5253 88.0764C11.9896 88.3232 11.257 88.1427 10.6092 88.1472C10.3047 88.1495 10.0002 88.1472 9.69572 88.1472C9.69572 88.1404 9.69572 88.1335 9.69572 88.1267V88.1289Z" fill="white"/>
<path d="M170.085 85.175C170.472 86.2813 170.845 87.3944 171.255 88.4915C171.461 89.0423 171.298 89.2114 170.73 89.2594C168.855 89.4194 168.446 89.0857 167.818 86.7635C167.693 86.295 167.69 85.671 167.237 85.4721C166.823 85.2893 166.241 85.3121 165.788 85.4356C165.316 85.5636 165.538 86.087 165.547 86.4298C165.563 87.1544 165.422 87.8492 165.325 88.56C165.151 89.8514 164.215 89.0789 163.65 89.2251C163.045 89.3806 162.677 88.9897 162.796 88.3749C163.038 87.1018 162.935 85.8104 163.054 84.5373C163.205 82.926 163.462 81.326 163.473 79.7032C163.476 79.3649 163.421 78.9535 163.931 78.9627C165.827 79.0015 167.729 78.7821 169.62 79.0952C170.701 79.2758 171.454 79.8815 171.667 80.9489C171.909 82.1603 171.708 83.3008 170.673 84.1465C170.497 84.2905 170.295 84.4025 170.105 84.5305C169.723 84.7362 169.872 84.9579 170.089 85.1796L170.085 85.175ZM167.461 81.0335C166.081 81.0335 165.724 81.3534 165.753 82.5305C165.781 83.6116 166.596 83.2848 167.171 83.3008C168.052 83.3282 168.92 83.3739 168.979 82.0506C169.039 80.7363 168.16 81.0769 167.461 81.0312V81.0335Z" fill="#17DC45"/>
<path d="M107.205 87.6589C107.422 85.1241 107.667 82.3494 107.887 79.5701C107.926 79.0695 108.173 78.9369 108.624 78.9415C110.222 78.9598 111.822 78.9232 113.42 78.9781C114.505 79.0147 115.458 79.4215 115.858 80.5255C116.332 81.8328 116.252 83.1745 115.068 84.0042C114.105 84.6784 114.304 85.2887 114.65 86.0887C114.991 86.8772 115.297 87.684 115.618 88.4817C115.705 88.6966 115.783 88.9206 115.597 89.1171C115.062 89.684 112.907 89.1217 112.713 88.3263C112.514 87.508 112.122 86.7698 111.875 85.9881C111.584 85.067 110.945 85.4098 110.417 85.3893C109.698 85.3596 109.993 85.9492 109.95 86.3058C109.851 87.0898 109.86 87.8966 109.675 88.66C109.414 89.7342 108.478 89.108 107.85 89.2383C107.255 89.3617 107.159 88.9571 107.202 88.4726C107.218 88.2852 107.205 88.0932 107.205 87.6612V87.6589ZM111.747 81.0169C111.094 81.1471 110.158 80.6512 110.133 82.0637C110.108 83.4191 110.833 83.3825 111.749 83.2979C111.9 83.2842 112.051 83.2979 112.202 83.2934C113.031 83.2522 113.381 82.8545 113.384 81.9905C113.388 80.6695 112.436 81.1403 111.747 81.0192V81.0169Z" fill="#17DC45"/>
<path d="M182.926 83.4005C182.926 86.8906 180.813 89.4002 176.822 89.2631C174.611 89.1877 172.498 87.0483 172.635 84.6507C172.828 81.2885 174.593 78.7515 178.109 78.7995C181.09 78.8429 182.926 80.1709 182.926 83.4005ZM180.162 83.8439C180.162 83.5627 180.162 83.4485 180.162 83.3342C180.176 81.8005 179.689 81.0143 178.597 80.8063C177.273 80.5549 176.225 81.2268 175.673 82.6096C175.369 83.3753 175.298 84.157 175.369 84.9524C175.458 85.9558 175.877 86.7878 176.9 87.1375C177.917 87.4826 178.97 87.078 179.618 86.1798C180.167 85.4187 180.236 84.5661 180.16 83.8439H180.162Z" fill="#17DC45"/>
<path d="M121.749 89.2442C118.864 89.2853 116.98 87.1963 117.028 84.5084C117.085 81.2628 119.109 78.7235 122.474 78.8149C125.799 78.904 127.138 80.1634 127.284 83.4181C127.442 86.8923 125.096 89.2442 121.749 89.2442ZM124.574 83.697C124.567 82.1451 124.166 81.2194 123.283 80.9062C122.191 80.5177 121.167 80.856 120.471 81.6628C119.601 82.6707 119.498 83.9461 119.762 85.2535C119.952 86.1975 120.272 86.9929 121.355 87.1711C122.413 87.3448 123.331 87.1163 123.958 86.1769C124.459 85.4272 124.61 84.5838 124.574 83.6993V83.697Z" fill="#17DC45"/>
<path d="M134.184 78.9396C136.105 78.8871 137.813 79.4836 138.291 81.4538C139.074 84.6789 138.525 88.0959 134.53 89.1358C131.703 89.8718 128.624 88.3953 128.475 84.9166C128.424 83.7303 128.553 82.5989 129.15 81.5315C130.157 79.7282 131.65 78.8368 133.729 78.9419C133.882 78.9419 134.033 78.9419 134.187 78.9419L134.184 78.9396ZM136.025 83.824C136.064 82.4458 135.849 81.495 134.812 80.9944C133.958 80.5807 133.108 80.6721 132.344 81.2573C131.398 81.9795 130.705 84.0389 131.011 85.168C131.334 86.3588 132.172 87.1473 133.184 87.209C134.306 87.2799 135.295 86.6788 135.659 85.5862C135.881 84.9166 135.952 84.1989 136.025 83.824Z" fill="#17DC45"/>
<path d="M11.8776 61.18H14.6087C14.5858 62.0097 14.6018 62.8417 14.5355 63.6668C14.4073 65.301 14.2241 66.9307 14.089 68.5649C14.0593 68.9237 13.8395 69.118 13.5991 69.2849C11.9806 70.3934 10.3483 71.4791 8.73438 72.5944C8.494 72.759 8.23531 72.9121 8.01783 72.759C7.8965 72.6744 7.86673 72.3087 7.93999 72.1259C8.43677 70.9077 8.10253 69.6163 8.31086 68.3592C8.67028 66.1878 8.69546 63.9594 8.80992 61.7514C8.8374 61.2303 9.01596 61.1183 9.48298 61.1366C10.2797 61.1663 11.0809 61.1457 11.8799 61.1457C11.8799 61.1572 11.8799 61.1686 11.8799 61.1823L11.8776 61.18Z" fill="white"/>
<path d="M156.586 78.9491C157.434 79.0657 158.436 78.9103 159.471 79.1365C161.733 79.6325 162.053 82.1239 161.415 83.5387C160.732 85.0517 159.526 85.9431 157.754 85.8357C157.488 85.8197 157.216 85.8654 156.955 85.8289C155.847 85.6711 155.252 85.9591 155.437 87.2459C155.515 87.7785 155.43 88.4253 155.183 88.8939C154.785 89.6436 153.972 89.1339 153.352 89.2459C152.818 89.3419 152.708 88.9579 152.731 88.5396C152.795 87.3762 152.763 86.1923 152.976 85.054C153.304 83.2987 153.123 81.5204 153.37 79.7651C153.462 79.1205 153.638 78.9126 154.256 78.9446C154.977 78.9811 155.701 78.9537 156.589 78.9537L156.586 78.9491ZM157.209 81.0473C156.87 81.109 156.177 80.8165 156.035 81.2187C155.781 81.9387 155.419 82.7798 155.765 83.5249C156.021 84.0804 156.731 83.7581 157.227 83.7672C158.596 83.7901 159.141 83.3169 159.148 82.2404C159.16 80.8782 158.196 81.0245 157.209 81.0473Z" fill="#17DC45"/>
<path d="M187.565 89.2394C186.365 89.3171 185.344 88.9263 184.371 88.3869C183.977 88.1697 183.437 87.9 183.961 87.3766C184.364 86.9744 184.451 85.9664 185.479 86.5172C186.491 87.0589 187.494 87.8018 188.769 87.1801C189.211 86.9652 189.57 86.7207 189.556 86.1835C189.543 85.5961 189.105 85.4773 188.638 85.3539C187.876 85.155 187.118 84.9333 186.37 84.6796C185.246 84.3002 184.431 83.5825 184.298 82.3597C184.16 81.098 184.884 80.1883 185.834 79.5072C187.633 78.2136 190.449 78.8764 191.885 79.6489C192.358 79.9049 192.333 80.218 192.038 80.5632C191.674 80.986 191.479 81.7951 190.657 81.3586C189.858 80.9335 189.034 80.7552 188.135 80.8009C187.569 80.8306 187.132 81.0203 187.054 81.5917C186.965 82.234 187.386 82.49 187.972 82.6614C188.693 82.8717 189.433 82.9837 190.154 83.2374C191.086 83.5642 192.013 84.0419 192.095 84.915C192.226 86.2818 192.065 87.7538 190.566 88.5354C189.611 89.0337 188.609 89.3423 187.567 89.2394H187.565Z" fill="#17DC45"/>
<path d="M105.586 43.5904C105.689 45.1423 105.192 46.7399 105.36 48.3673C105.401 48.7719 105.238 48.8999 104.842 48.877C104.272 48.845 103.643 49.0164 103.141 48.8267C102.209 48.4747 101.291 48.6599 100.367 48.6393C99.8263 48.6279 99.602 48.3879 99.6386 47.8668C99.792 45.5834 99.9522 43.3001 100.092 41.0167C100.117 40.6053 100.378 40.6236 100.639 40.651C102.155 40.8065 103.663 41.0145 105.163 41.3047C105.625 41.3939 105.586 41.6224 105.586 41.9218C105.586 42.4544 105.586 42.9869 105.586 43.5926V43.5904Z" fill="white"/>
<path d="M146.734 83.3175C146.75 83.6581 146.759 84.0009 146.787 84.3392C146.835 84.9243 146.581 85.1277 145.99 85.13C144.932 85.1346 143.632 84.7072 142.881 85.2969C142.167 85.8591 142.618 87.2122 142.499 88.2065C142.339 89.5367 141.542 89.1893 140.807 89.2464C139.871 89.3219 139.855 88.6979 139.907 88.0556C140.136 85.2054 140.384 82.3553 140.613 79.5028C140.649 79.048 140.896 78.9383 141.292 78.9405C143.27 78.9451 145.248 78.952 147.229 78.9337C147.7 78.9291 147.838 79.1028 147.693 79.5302C147.533 80.0079 148.108 80.8628 147.007 80.8605C145.942 80.8582 144.875 80.8993 143.811 80.8513C142.79 80.8056 142.906 81.4616 142.87 82.1267C142.831 82.8375 143.012 83.1667 143.802 83.1164C144.71 83.0592 145.626 83.121 146.539 83.1301C146.606 83.1918 146.672 83.2535 146.741 83.3152L146.734 83.3175Z" fill="#17DC45"/>
<path d="M105.811 35.5832C105.88 36.55 105.772 37.782 105.594 39.0139C105.55 39.3156 105.532 39.4871 105.161 39.5122C103.604 39.6151 102.135 38.9591 100.583 39.0277C100.253 39.0414 100.328 38.7191 100.317 38.5088C100.173 36.2369 100.567 33.9856 100.55 31.7182C100.548 31.2817 100.74 31.2451 101.125 31.3342C102.457 31.6428 103.794 31.9399 105.143 32.1822C105.676 32.2782 105.832 32.5342 105.818 33.0256C105.798 33.7844 105.814 34.5455 105.814 35.5832H105.811Z" fill="white"/>
<path d="M108.328 41.7515C109.216 41.8429 110.109 41.9046 110.99 42.0349C111.434 42.0989 111.759 42.2726 111.782 42.8874C111.853 44.7754 111.356 46.6313 111.526 48.5238C111.555 48.8483 111.416 49.31 110.933 49.31C109.99 49.3078 109.051 49.3603 108.103 49.2438C107.075 49.1181 106.764 48.5604 106.963 47.6644C107.355 45.9113 107.165 44.1377 107.155 42.3777C107.153 41.6098 107.43 41.4658 108.069 41.5755C108.101 41.7103 108.165 41.7995 108.323 41.7538L108.328 41.7515Z" fill="white"/>
<path d="M107.445 32.6953C108.858 33.0884 110.222 33.3924 111.612 33.5661C112.372 33.6621 112.313 34.2427 112.203 34.6792C111.823 36.1763 112.061 37.6871 111.999 39.1888C111.949 40.3933 111.731 40.5533 110.58 40.3179C109.739 40.1465 108.881 40.0185 108.027 39.9796C107.372 39.9476 107.1 39.6893 107.203 39.0745C107.549 36.9763 107.356 34.8552 107.448 32.6976L107.445 32.6953Z" fill="white"/>
<path d="M31.3574 39.9043C31.552 38.0849 31.7809 36.3227 31.9137 34.5537C31.9938 33.5 33.475 32.476 34.4457 32.8852C34.8097 33.0383 34.6838 33.3331 34.6632 33.5571C34.5189 35.1868 34.4182 36.8233 34.1595 38.4369C33.91 39.998 33.6513 40.0826 31.3574 39.9066V39.9043Z" fill="white"/>
<path d="M30.5935 37.9147C30.5798 38.0656 30.5569 38.2164 30.5569 38.3673C30.5546 40.0198 29.5885 40.7672 27.9631 40.4472C27.3885 40.3329 27.5625 39.9467 27.5946 39.677C27.7983 37.9513 27.8807 36.1868 28.3409 34.5274C28.5767 33.6749 29.7831 33.8852 30.5889 33.8326C31.3238 33.7846 31.001 34.4314 30.9942 34.7514C30.969 35.7205 30.8522 36.6896 30.7721 37.6565C30.637 37.6907 30.55 37.7593 30.5958 37.917L30.5935 37.9147Z" fill="white"/>
<path d="M29.4183 47.4973C28.5461 47.7898 27.6556 47.8058 26.7559 47.6527C26.9436 46.8527 26.7398 45.9979 26.9436 45.2391C27.2091 44.2517 27.0993 43.246 27.3167 42.2586C27.4564 41.6301 27.548 41.2826 28.2645 41.3329C28.9055 41.3786 29.5534 41.3421 30.2012 41.3421C30.0112 43.2803 29.8281 45.1613 29.645 47.0424C29.3657 47.0927 29.4481 47.3258 29.416 47.4973H29.4183Z" fill="white"/>
<path d="M30.6603 47.5512C30.2757 45.453 31.0861 43.6176 31.0769 41.7114C31.0746 41.1057 31.647 40.8726 32.3131 40.852C33.8722 40.804 33.7852 40.756 33.5745 42.4177C33.412 43.7022 33.1831 44.9867 33.1075 46.2758C33.0595 47.1101 32.7504 47.3409 32.0041 47.2655C31.5577 47.2198 31.1113 47.2426 30.6603 47.5512Z" fill="white"/>
<path d="M182.643 44.8661C184.227 44.617 184.357 44.665 184.261 46.1621C184.126 48.2991 184.481 50.4408 184.083 52.5801C183.975 53.1607 183.806 53.2132 183.316 53.2018C182.773 53.1904 182.43 53.0807 182.448 52.459C182.464 51.8921 182.45 51.323 182.45 50.7562C182.45 49.8404 182.876 49.3307 183.728 49.2271C183.799 48.4591 182.574 48.9642 182.665 48.1391C182.727 47.5814 182.654 47.0078 182.643 46.4409C182.643 45.9175 182.643 45.3941 182.643 44.8707V44.8661Z" fill="white"/>
<path d="M181.983 50.9483C181.983 51.3277 181.946 51.7116 181.992 52.0865C182.07 52.7356 181.923 52.9962 181.161 53.0076C180.307 53.0213 180.371 52.5802 180.385 52.0294C180.401 51.4214 180.383 50.8134 180.389 50.2054C180.399 49.6432 180.163 49.0329 181.218 49.0512C182.31 49.0718 181.93 49.746 181.985 50.2626C182.01 50.4888 181.99 50.7174 181.99 50.946H181.983V50.9483Z" fill="white"/>
<path d="M182.027 46.5871C182.013 46.85 181.997 47.1128 181.99 47.3734C181.981 47.6957 182.476 48.0682 181.942 48.3265C181.564 48.5093 181.109 48.4865 180.731 48.3471C180.216 48.1574 180.317 47.6225 180.408 47.2637C180.646 46.3106 180.71 45.3803 180.488 44.3861C180.859 44.1941 181.317 44.3472 181.759 44.3107C181.823 44.5644 182.041 44.5095 182.217 44.5369C182.235 44.6101 182.235 44.6855 182.217 44.7586C181.759 45.3278 182.079 45.9746 182.031 46.5849L182.027 46.5871Z" fill="white"/>
<path d="M182.032 46.5782C182.08 45.9679 181.758 45.3211 182.218 44.752C182.36 44.7885 182.502 44.8274 182.641 44.864C182.641 45.3874 182.641 45.9108 182.641 46.4342C182.438 46.4822 182.236 46.5302 182.032 46.5782Z" fill="#01370D"/>
<path d="M12.9696 48.8948C12.8322 49.393 12.5941 49.8296 12.0195 50.385C12.2256 49.6056 12.3812 49.1165 12.8918 48.8125C12.9169 48.8399 12.9421 48.8674 12.9696 48.8948Z" fill="#0FB63C"/>
<path d="M131.045 41.9902C131.233 42.3308 131.471 42.6576 131.345 43.1079C130.894 42.9822 130.83 42.6188 130.736 42.2759C130.839 42.1799 130.942 42.0862 131.045 41.9902Z" fill="#01370D"/>
<path d="M66.4216 37.6643C66.2842 37.966 66.1675 38.2928 65.6387 38.3225C65.7737 37.934 65.9203 37.6231 66.2064 37.3809C66.2774 37.4746 66.3483 37.5683 66.4216 37.6643Z" fill="#01370D"/>
<path d="M128.455 53.425C128.405 53.1233 128.355 52.8193 128.307 52.5176C128.705 52.7644 129.344 52.9701 128.455 53.425Z" fill="#01370D"/>
<path d="M173.399 49.9976C173.337 49.6822 173.211 49.3257 173.774 49.4034C173.742 49.6594 173.76 49.9496 173.399 49.9976Z" fill="#01370D"/>
<path d="M190.687 46.799C190.42 46.559 190.268 46.2641 190.28 45.8984C190.843 46.0081 190.637 46.4607 190.687 46.799Z" fill="#01370D"/>
<path d="M179.471 56.6713C179.315 56.717 179.212 56.7833 179.145 56.7582C179.065 56.7262 179.015 56.6142 178.953 56.5388C179.04 56.5045 179.134 56.4313 179.212 56.4451C179.29 56.4588 179.351 56.5616 179.471 56.6713Z" fill="#01370D"/>
<path d="M194.81 57.2947C194.542 57.1507 194.322 56.9793 194.407 56.625C194.833 56.673 194.801 56.9953 194.81 57.2947Z" fill="#01370D"/>
<path d="M180.165 56.6582C180.275 56.7428 180.401 56.7908 180.433 56.873C180.49 57.0216 180.35 57.0765 180.243 57.0445C180.158 57.0193 180.085 56.9165 180.032 56.8342C180.021 56.8136 180.108 56.7313 180.165 56.6582Z" fill="#01370D"/>
<path d="M193.195 57.5219C193.356 57.2773 193.509 57.2773 193.658 57.5333C193.498 57.7733 193.344 57.7596 193.195 57.5219Z" fill="#01370D"/>
<path d="M182.22 44.5332C182.043 44.5058 181.826 44.5606 181.762 44.3069C182.128 43.9504 182.174 44.2429 182.22 44.5332Z" fill="#01370D"/>
<path d="M29.4141 47.49C29.4484 47.3163 29.366 47.0854 29.643 47.0352C29.9887 47.3986 29.7048 47.4466 29.4141 47.49Z" fill="#01370D"/>
<path d="M134.186 78.9372C134.033 78.9372 133.882 78.9372 133.729 78.9372C133.751 78.7909 133.77 78.6172 133.957 78.6172C134.145 78.6172 134.163 78.7909 134.186 78.9372Z" fill="#01370D"/>
<path d="M192.387 51.0882C192.126 51.0653 192.069 50.9122 192.121 50.6836C192.348 50.7293 192.584 50.7659 192.387 51.0882Z" fill="#01370D"/>
<path d="M10.8226 52.1406C10.8867 52.1681 10.9851 52.1841 11.0034 52.2298C11.0218 52.2755 10.9577 52.3532 10.9302 52.4172C10.8661 52.3898 10.7676 52.376 10.7493 52.3303C10.731 52.2846 10.7951 52.2069 10.8226 52.1429V52.1406Z" fill="#01370D"/>
<path d="M170.083 85.1765C169.865 84.9548 169.717 84.7353 170.099 84.5273C170.094 84.7445 170.087 84.9593 170.083 85.1765Z" fill="#01370D"/>
<path d="M62.0953 24.2207V24.7373C62.0472 24.7373 62.0014 24.7395 61.9533 24.7418C61.9396 24.5681 61.9258 24.3944 61.9121 24.2207C61.9739 24.2207 62.0334 24.2207 62.0953 24.2207Z" fill="#01370D"/>
<path d="M137.15 62.8926C137.402 62.8949 137.372 63.0663 137.352 63.2308C137.285 63.1189 137.217 63.0046 137.15 62.8926Z" fill="#01370D"/>
<path d="M180.712 37.8457C180.739 37.8549 180.792 37.8641 180.792 37.8757C180.792 37.9079 180.774 37.9425 180.762 37.9748C180.735 37.9656 180.682 37.9564 180.682 37.9448C180.682 37.9126 180.7 37.878 180.712 37.8457Z" fill="#01370D"/>
<path d="M21.6277 53.8318C21.6 53.8088 21.5746 53.788 21.5469 53.765C21.5769 53.7488 21.6092 53.7166 21.6392 53.7189C21.6669 53.7212 21.6946 53.7581 21.72 53.7811C21.69 53.7972 21.6577 53.8157 21.6277 53.8318Z" fill="#01370D"/>
<path d="M9.95932 53.873C9.99137 53.7747 10.0257 53.6764 10.0578 53.5781C10.0852 53.5987 10.1402 53.6353 10.1379 53.6376C10.0875 53.7221 10.0303 53.8067 9.97306 53.889L9.95703 53.873H9.95932Z" fill="#01370D"/>
<path d="M182.926 33.722C182.842 33.738 182.755 33.7563 182.67 33.7723C182.702 33.6809 182.736 33.5895 182.768 33.498C182.821 33.5735 182.874 33.6466 182.926 33.722Z" fill="#01370D"/>
<path d="M33.4062 16.0098C33.4383 15.9504 33.4589 15.8544 33.5047 15.8407C33.6329 15.8018 33.7153 15.8727 33.7428 16.0052C33.6306 16.0052 33.5184 16.0075 33.4062 16.0098Z" fill="#01370D"/>
<path d="M11.5762 51.1521C11.5671 50.9602 11.5923 50.7819 11.8029 50.6973L11.7891 50.6836C11.8075 50.8824 11.7685 51.0516 11.5625 51.1384L11.5762 51.1521Z" fill="#0FB63C"/>
<path d="M181.604 36.1989L181.67 36.166L181.66 36.2458L181.604 36.1989Z" fill="#0FB63C"/>
<path d="M36.2363 62.1012C36.2844 61.98 36.3348 61.8634 36.5042 61.9114C36.4149 61.9754 36.3256 62.0372 36.2363 62.1012Z" fill="#01370D"/>
<path d="M125.258 52.2988C125.457 52.3697 125.434 52.4451 125.262 52.5228C125.262 52.4474 125.26 52.3743 125.258 52.2988Z" fill="#01370D"/>
<path d="M30.5137 66.2066C30.5617 66.0855 30.6121 65.9689 30.7815 66.0169C30.6922 66.0809 30.603 66.1426 30.5137 66.2066Z" fill="#01370D"/>
<path d="M25.707 69.6286C25.7551 69.5098 25.8032 69.3864 25.9749 69.4481C25.8856 69.5075 25.7963 69.5692 25.707 69.6286Z" fill="#01370D"/>
<path d="M172.619 72.6412C172.755 72.6182 172.811 72.685 172.804 72.8141C172.742 72.7565 172.681 72.6988 172.619 72.6412Z" fill="#01370D"/>
<path d="M20.0137 73.7297C20.0526 73.6086 20.0984 73.5012 20.2586 73.5629C20.1762 73.6178 20.0938 73.6749 20.0137 73.7297Z" fill="#01370D"/>
<path d="M52.3173 74.1258L52.322 74.1C52.2712 74.0976 52.2227 74.0953 52.1719 74.0929C52.1996 74.0789 52.2319 74.0507 52.255 74.0578C52.2804 74.0648 52.2966 74.1023 52.315 74.1281L52.3173 74.1258Z" fill="#A7B9AB"/>
<path d="M11.8045 50.6917C11.8299 50.6364 11.8553 50.5811 11.883 50.5234C12.0123 50.6687 11.8807 50.6594 11.793 50.6779L11.8068 50.6917H11.8045Z" fill="#0FB63C"/>
<path d="M32.6218 76.0195C32.6035 76.1544 32.5509 76.2481 32.3906 76.207C32.4685 76.1452 32.5463 76.0835 32.6218 76.0195Z" fill="#01370D"/>
<path d="M23.0038 77.12C22.8435 77.1657 22.7886 77.0629 22.752 76.9395C22.8367 76.9989 22.9191 77.0606 23.0038 77.12Z" fill="#01370D"/>
<path d="M72.6483 50.1818C72.3941 50.1269 72.5063 50.0263 72.6162 49.9258C72.6277 50.0103 72.6368 50.0972 72.6483 50.1818Z" fill="#01370D"/>
<path d="M191.146 47.9342C191.028 47.9204 190.947 47.8766 190.977 47.7383C191.032 47.8028 191.088 47.8697 191.146 47.9342Z" fill="#01370D"/>
<path d="M182.629 34.9392C182.711 34.7655 182.789 34.7266 182.86 34.946C182.782 34.946 182.707 34.9414 182.629 34.9392Z" fill="#01370D"/>
<path d="M186.569 43.3772C186.509 43.3087 186.452 43.2424 186.395 43.1738C186.454 43.2424 186.511 43.3087 186.569 43.3772Z" fill="#01370D"/>
<path d="M108.328 41.7486C108.17 41.792 108.106 41.7029 108.074 41.5703L108.328 41.7486Z" fill="#01370D"/>
<path d="M185.194 39.7272C185.077 39.7089 184.995 39.6586 185.018 39.5215C185.077 39.5901 185.134 39.6586 185.194 39.7272Z" fill="#01370D"/>
<path d="M193.434 53.8696C193.316 53.8557 193.234 53.8047 193.255 53.668C193.316 53.7352 193.374 53.8024 193.434 53.8696Z" fill="#01370D"/>
<path d="M30.5961 37.909C30.5503 37.7513 30.6396 37.685 30.7724 37.6484C30.7129 37.7353 30.6533 37.8221 30.5961 37.909Z" fill="#01370D"/>
<path d="M181.385 36.6442L181.439 36.623L181.427 36.6841L181.385 36.6442Z" fill="#0FB63C"/>
<path d="M146.733 83.3164C146.666 83.2547 146.6 83.193 146.531 83.1313C146.675 83.1084 146.735 83.177 146.733 83.3164Z" fill="#0FB63C"/>
<path d="M9.97445 53.8892C9.95367 53.9192 9.93289 53.9514 9.91211 53.9814C9.92827 53.9445 9.94213 53.9099 9.95829 53.873L9.97445 53.8892Z" fill="#01370D"/>
<path d="M106.088 11.6685C106.151 11.6012 106.213 11.534 106.278 11.4668C106.216 11.534 106.153 11.6012 106.088 11.6685Z" fill="#01370D"/>
<path d="M11.5634 51.1328C11.5311 51.172 11.4988 51.2112 11.4688 51.2504C11.4734 51.225 11.4687 51.1904 11.4849 51.1789C11.5103 51.1605 11.5473 51.1559 11.5773 51.1466L11.5634 51.1328Z" fill="#0FB63C"/>
<path d="M131.73 43.9285L131.802 43.9004L131.793 43.9731L131.73 43.9285Z" fill="#01370D"/>
<path d="M131.545 43.5626L131.518 43.4688L131.589 43.4758L131.545 43.5626Z" fill="#01370D"/>
<path d="M83.7457 73.9309C81.0054 73.9309 78.2651 73.9126 75.5248 73.9446C74.8884 73.9514 74.6457 73.7869 74.6984 73.1286C74.8747 70.8864 74.9731 68.6397 75.1837 66.402C75.2753 65.4192 76.1887 65.5449 76.8434 65.5221C78.478 65.4695 80.1171 65.5038 81.7517 65.5038C84.9498 65.5038 88.1457 65.5335 91.3416 65.4809C92.0741 65.4695 92.7518 65.6798 93.4408 65.794C94.0132 65.89 94.4619 66.434 94.3817 67.1517C94.1917 68.8179 94.2787 70.507 93.9307 72.1572C93.6354 73.556 93.1707 73.956 91.7353 73.9606C89.0706 73.9697 86.4081 73.9629 83.7434 73.9629V73.9309H83.7457Z" fill="#00330C"/>
<path d="M170.455 63.3867C170.973 65.3775 171.419 67.1123 171.873 68.8448C171.992 69.3042 171.79 69.4733 171.353 69.4619C171.126 69.4551 170.895 69.487 170.671 69.4596C169.844 69.3568 168.59 69.9305 168.299 69.4139C167.914 68.7282 168.768 67.7843 169.066 66.9454C169.464 65.8255 169.927 64.7261 170.453 63.3867H170.455Z" fill="#01370D"/>
<path d="M186.639 67.4267C185.996 67.3924 185.227 67.5639 184.744 67.269C184.167 66.917 184.789 66.1902 184.773 65.6097C184.677 62.2132 184.613 62.8372 187.507 62.8006C189.343 62.7755 189.998 63.2943 190 64.6657C190.002 66.757 189.425 67.3764 187.443 67.397C187.177 67.3993 186.909 67.397 186.644 67.397C186.644 67.4084 186.644 67.4176 186.644 67.429L186.639 67.4267Z" fill="#00330C"/>
<path d="M167.459 81.0344C168.158 81.0824 169.035 80.7395 168.977 82.0538C168.918 83.3749 168.05 83.3292 167.169 83.304C166.594 83.2857 165.779 83.6149 165.752 82.5338C165.722 81.3567 166.079 81.0344 167.459 81.0344Z" fill="#00330C"/>
<path d="M111.751 81.0218C112.443 81.1407 113.393 80.6698 113.388 81.9932C113.386 82.8595 113.036 83.2549 112.207 83.296C112.056 83.3029 111.902 83.2869 111.754 83.3006C110.838 83.3852 110.112 83.424 110.137 82.0664C110.165 80.6538 111.101 81.1498 111.751 81.0195V81.0218Z" fill="#00330C"/>
<path d="M180.163 83.8388C180.238 84.561 180.167 85.4136 179.62 86.1747C178.972 87.0729 177.919 87.4775 176.903 87.1324C175.877 86.7827 175.458 85.9507 175.371 84.9473C175.3 84.1542 175.371 83.3702 175.676 82.6045C176.227 81.2217 177.276 80.5521 178.599 80.8012C179.691 81.0069 180.176 81.7954 180.165 83.3291C180.165 83.4434 180.165 83.5577 180.165 83.8388H180.163Z" fill="#01370D"/>
<path d="M124.576 83.694C124.611 84.5785 124.46 85.4219 123.958 86.1716C123.331 87.1133 122.413 87.3418 121.355 87.1658C120.275 86.9876 119.954 86.1922 119.762 85.2482C119.499 83.9408 119.602 82.6655 120.472 81.6575C121.168 80.853 122.189 80.5124 123.283 80.901C124.167 81.2141 124.567 82.1421 124.576 83.694Z" fill="#00330C"/>
<path d="M136.021 83.8287C135.947 84.2035 135.876 84.9235 135.654 85.5909C135.29 86.6834 134.301 87.2845 133.18 87.2137C132.168 87.1497 131.33 86.3634 131.007 85.1726C130.7 84.0412 131.394 81.9842 132.339 81.2619C133.104 80.6768 133.953 80.5853 134.807 80.999C135.842 81.5019 136.057 82.4527 136.021 83.8287Z" fill="#01370D"/>
<path d="M157.21 81.0494C158.196 81.0266 159.158 80.8826 159.149 82.2425C159.14 83.319 158.595 83.7922 157.228 83.7693C156.731 83.7602 156.024 84.0824 155.765 83.527C155.42 82.7796 155.781 81.9408 156.035 81.2208C156.177 80.8186 156.873 81.1111 157.21 81.0494Z" fill="#01370D"/>
</svg>
